<?xml version="1.0" encoding="UTF-8" standalone="no"?>
<svg
   xmlns:dc="http://purl.org/dc/elements/1.1/"
   xmlns:cc="http://creativecommons.org/ns#"
   xmlns:rdf="http://www.w3.org/1999/02/22-rdf-syntax-ns#"
   xmlns:svg="http://www.w3.org/2000/svg"
   xmlns="http://www.w3.org/2000/svg"
   xmlns:sodipodi="http://sodipodi.sourceforge.net/DTD/sodipodi-0.dtd"
   xmlns:inkscape="http://www.inkscape.org/namespaces/inkscape"
   id="WORKING_ICONS"
   data-name="WORKING ICONS"
   width="20"
   height="13.283"
   viewBox="0 0 20 13.283"
   version="1.1"
   sodipodi:docname="arrive_left.svg"
   inkscape:version="1.0 (4035a4fb49, 2020-05-01)">
  <metadata
     id="metadata11">
    <rdf:RDF>
      <cc:Work
         rdf:about="">
        <dc:format>image/svg+xml</dc:format>
        <dc:type
           rdf:resource="http://purl.org/dc/dcmitype/StillImage" />
        <dc:title>direction</dc:title>
      </cc:Work>
    </rdf:RDF>
  </metadata>
  <defs
     id="defs9" />
  <sodipodi:namedview
     fit-margin-bottom="0"
     fit-margin-right="0"
     fit-margin-left="0"
     fit-margin-top="0"
     inkscape:document-rotation="0"
     pagecolor="#ffffff"
     bordercolor="#666666"
     borderopacity="1"
     objecttolerance="10"
     gridtolerance="10"
     guidetolerance="10"
     inkscape:pageopacity="0"
     inkscape:pageshadow="2"
     inkscape:window-width="1920"
     inkscape:window-height="1027"
     id="namedview7"
     showgrid="false"
     inkscape:zoom="21.5"
     inkscape:cx="11.145089"
     inkscape:cy="9.0262758"
     inkscape:window-x="-8"
     inkscape:window-y="22"
     inkscape:window-maximized="1"
     inkscape:current-layer="WORKING_ICONS" />
  <title
     id="title2">direction</title>
  <path
     fill="#000000"
     d="M 2.2222222,7.7274438 A 2.2222222,2.2222222 0 1 1 4.4444444,5.5052216 2.2222222,2.2222222 0 0 1 2.2222222,7.7274438 Z M 13.336589,6.6570888 a 4.5086889,4.5086889 0 0 1 4.431967,4.5258222 h 0.0092 v 1.530833 A 0.56924444,0.56924444 0 0 0 18.347011,13.283 h 1.083711 A 0.56924444,0.56924444 0 0 0 20,12.713744 V 11.060778 H 19.98461 A 6.7289667,6.7289667 0 0 0 13.336389,4.4348661 l -0.01222,-0.00203 1.33e-4,0.022311 h -1.102078 v -0.0101 A 0.3973,0.3973 0 0 1 11.802911,3.842355 L 13.295967,0.56253282 A 0.42954444,0.42954444 0 0 0 12.603144,0.10762172 L 5.5555556,5.5561546 12.603144,11.0047 a 0.42955556,0.42955556 0 0 0 0.692823,-0.454911 L 11.802911,7.2699668 a 0.3973,0.3973 0 0 1 0.419311,-0.6027 v 0.0101 h 1.111111"
     id="path4"
     style="stroke-width:1.11111" />
</svg>
