<?xml version="1.0" encoding="UTF-8" standalone="no"?>
<svg
   xmlns:dc="http://purl.org/dc/elements/1.1/"
   xmlns:cc="http://creativecommons.org/ns#"
   xmlns:rdf="http://www.w3.org/1999/02/22-rdf-syntax-ns#"
   xmlns:svg="http://www.w3.org/2000/svg"
   xmlns="http://www.w3.org/2000/svg"
   xmlns:sodipodi="http://sodipodi.sourceforge.net/DTD/sodipodi-0.dtd"
   xmlns:inkscape="http://www.inkscape.org/namespaces/inkscape"
   id="WORKING_ICONS"
   data-name="WORKING ICONS"
   width="17.469061"
   height="20"
   viewBox="0 0 17.469061 20"
   version="1.1"
   sodipodi:docname="continue_right.svg"
   inkscape:version="1.0 (4035a4fb49, 2020-05-01)">
  <metadata
     id="metadata11">
    <rdf:RDF>
      <cc:Work
         rdf:about="">
        <dc:format>image/svg+xml</dc:format>
        <dc:type
           rdf:resource="http://purl.org/dc/dcmitype/StillImage" />
        <dc:title>direction</dc:title>
      </cc:Work>
    </rdf:RDF>
  </metadata>
  <defs
     id="defs9" />
  <sodipodi:namedview
     fit-margin-bottom="0"
     fit-margin-right="0"
     fit-margin-left="0"
     fit-margin-top="0"
     inkscape:document-rotation="0"
     pagecolor="#ffffff"
     bordercolor="#666666"
     borderopacity="1"
     objecttolerance="10"
     gridtolerance="10"
     guidetolerance="10"
     inkscape:pageopacity="0"
     inkscape:pageshadow="2"
     inkscape:window-width="1920"
     inkscape:window-height="1027"
     id="namedview7"
     showgrid="false"
     inkscape:zoom="21.5"
     inkscape:cx="9.6207834"
     inkscape:cy="12.793465"
     inkscape:window-x="-8"
     inkscape:window-y="22"
     inkscape:window-maximized="1"
     inkscape:current-layer="WORKING_ICONS" />
  <title
     id="title2">direction</title>
  <path
     fill="#000000"
     d="M 7.4771737,7.4918486 A 5.0663062,5.0663062 0 0 0 2.4970785,12.577407 v 6.803048 A 0.61954509,0.61954509 0 0 1 1.8775334,20 H 0.62092638 a 0.6194452,0.6194452 0 0 1 -0.6194577,-0.620307 l 0.00243,-1.876751 H 1.8684501e-5 V 12.577407 A 7.5663233,7.5663233 0 0 1 7.4774607,4.9947905 l 0.01373,-0.00228 v 0.00228 H 9.9727044 A 0.44643653,0.44643653 0 0 0 10.443874,4.3175634 L 8.7661634,0.63210535 a 0.48266885,0.48266885 0 0 1 0.778495,-0.5111853 L 17.46906,6.2661801 9.5446464,12.365794 A 0.48266885,0.48266885 0 0 1 8.7661384,11.854621 L 10.443849,8.169163 A 0.44647399,0.44647399 0 0 0 9.9726794,7.4918611 H 7.4771697 Z"
     id="path4"
     style="stroke-width:1.24853" />
</svg>
