<?xml version="1.0" encoding="UTF-8" standalone="no"?>
<svg
   xmlns:dc="http://purl.org/dc/elements/1.1/"
   xmlns:cc="http://creativecommons.org/ns#"
   xmlns:rdf="http://www.w3.org/1999/02/22-rdf-syntax-ns#"
   xmlns:svg="http://www.w3.org/2000/svg"
   xmlns="http://www.w3.org/2000/svg"
   xmlns:sodipodi="http://sodipodi.sourceforge.net/DTD/sodipodi-0.dtd"
   xmlns:inkscape="http://www.inkscape.org/namespaces/inkscape"
   id="WORKING_ICONS"
   data-name="WORKING ICONS"
   width="13.332906"
   height="20"
   viewBox="0 0 13.332906 20"
   version="1.1"
   sodipodi:docname="continue_slight_right.svg"
   inkscape:version="1.0 (4035a4fb49, 2020-05-01)">
  <metadata
     id="metadata11">
    <rdf:RDF>
      <cc:Work
         rdf:about="">
        <dc:format>image/svg+xml</dc:format>
        <dc:type
           rdf:resource="http://purl.org/dc/dcmitype/StillImage" />
        <dc:title>direction</dc:title>
      </cc:Work>
    </rdf:RDF>
  </metadata>
  <defs
     id="defs9" />
  <sodipodi:namedview
     fit-margin-bottom="0"
     fit-margin-right="0"
     fit-margin-left="0"
     fit-margin-top="0"
     inkscape:document-rotation="0"
     pagecolor="#ffffff"
     bordercolor="#666666"
     borderopacity="1"
     objecttolerance="10"
     gridtolerance="10"
     guidetolerance="10"
     inkscape:pageopacity="0"
     inkscape:pageshadow="2"
     inkscape:window-width="1920"
     inkscape:window-height="1027"
     id="namedview7"
     showgrid="false"
     inkscape:zoom="21.5"
     inkscape:cx="6.5990997"
     inkscape:cy="14.169382"
     inkscape:window-x="-8"
     inkscape:window-y="22"
     inkscape:window-maximized="1"
     inkscape:current-layer="WORKING_ICONS" />
  <title
     id="title2">direction</title>
  <path
     fill="#000000"
     d="M 3.1381725,6.9980533 6.4147854,4.2329067 A 0.4768,0.4768 0 0 0 6.3211994,3.3567733 L 2.3893059,1.55656 A 0.51544,0.51544 0 0 1 2.6598925,0.5995333 L 13.332906,0 11.225653,10.48 a 0.51550667,0.51550667 0 0 1 -0.98584,0.13216 L 9.0155727,6.46468 a 0.47677333,0.47677333 0 0 0 -0.854,-0.21688 L 4.8972792,9.001947 a 6.9575867,6.9575867 0 0 0 -2.22,5.525333 l 0.00627,4.810227 A 0.66152,0.66152 0 0 1 2.0219592,20 H 0.67991915 A 0.66161333,0.66161333 0 0 1 0.01838585,19.338373 V 14.724 A 9.66876,9.66876 0 0 1 3.1381725,6.9980533 Z"
     id="path4"
     style="stroke-width:1.33333" />
</svg>
