<?xml version="1.0" encoding="UTF-8" standalone="no"?>
<svg
   xmlns:dc="http://purl.org/dc/elements/1.1/"
   xmlns:cc="http://creativecommons.org/ns#"
   xmlns:rdf="http://www.w3.org/1999/02/22-rdf-syntax-ns#"
   xmlns:svg="http://www.w3.org/2000/svg"
   xmlns="http://www.w3.org/2000/svg"
   xmlns:sodipodi="http://sodipodi.sourceforge.net/DTD/sodipodi-0.dtd"
   xmlns:inkscape="http://www.inkscape.org/namespaces/inkscape"
   id="WORKING_ICONS"
   data-name="WORKING ICONS"
   width="16.514585"
   height="20"
   viewBox="0 0 16.514585 20"
   version="1.1"
   sodipodi:docname="depart_right.svg"
   inkscape:version="1.0 (4035a4fb49, 2020-05-01)">
  <metadata
     id="metadata11">
    <rdf:RDF>
      <cc:Work
         rdf:about="">
        <dc:format>image/svg+xml</dc:format>
        <dc:type
           rdf:resource="http://purl.org/dc/dcmitype/StillImage" />
        <dc:title>direction</dc:title>
      </cc:Work>
    </rdf:RDF>
  </metadata>
  <defs
     id="defs9" />
  <sodipodi:namedview
     fit-margin-bottom="0"
     fit-margin-right="0"
     fit-margin-left="0"
     fit-margin-top="0"
     inkscape:document-rotation="0"
     pagecolor="#ffffff"
     bordercolor="#666666"
     borderopacity="1"
     objecttolerance="10"
     gridtolerance="10"
     guidetolerance="10"
     inkscape:pageopacity="0"
     inkscape:pageshadow="2"
     inkscape:window-width="1920"
     inkscape:window-height="1027"
     id="namedview7"
     showgrid="false"
     inkscape:zoom="21.5"
     inkscape:cx="10.328742"
     inkscape:cy="11.499285"
     inkscape:window-x="-8"
     inkscape:window-y="22"
     inkscape:window-maximized="1"
     inkscape:current-layer="WORKING_ICONS" />
  <title
     id="title2">direction</title>
  <path
     fill="#000000"
     d="M 0,17.640774 A 2.3592266,2.3592266 0 1 1 2.3592266,20 2.3592266,2.3592266 0 0 1 0,17.640774 Z M 8.257293,7.0890497 H 9.436906 V 7.0783267 A 0.42179433,0.42179433 0 0 1 9.882069,7.7181726 L 8.296964,11.200203 A 0.45603851,0.45603851 0 0 0 9.0325,11.68316 L 16.514586,5.8987137 9.0325,0.11425569 A 0.45602671,0.45602671 0 0 0 8.296964,0.59721299 L 9.882069,4.0792427 A 0.42179433,0.42179433 0 0 1 9.436906,4.7191004 v 0.010723 H 8.266942 l 1.42e-4,-0.023687 -0.01298,0.00216 A 7.1438208,7.1438208 0 0 0 1.195951,11.742707 H 1.179613 v 1.754875 a 0.60433949,0.60433949 0 0 0 0.6043513,0.604352 h 1.150524 A 0.60433949,0.60433949 0 0 0 3.5388396,13.497582 V 11.87237 h 0.00979 A 4.7866585,4.7866585 0 0 1 8.253837,7.0675217"
     id="path4"
     style="stroke-width:1.17961" />
</svg>
