<?xml version="1.0" encoding="UTF-8" standalone="no"?>
<svg
   xmlns:dc="http://purl.org/dc/elements/1.1/"
   xmlns:cc="http://creativecommons.org/ns#"
   xmlns:rdf="http://www.w3.org/1999/02/22-rdf-syntax-ns#"
   xmlns:svg="http://www.w3.org/2000/svg"
   xmlns="http://www.w3.org/2000/svg"
   xmlns:sodipodi="http://sodipodi.sourceforge.net/DTD/sodipodi-0.dtd"
   xmlns:inkscape="http://www.inkscape.org/namespaces/inkscape"
   id="WORKING_ICONS"
   data-name="WORKING ICONS"
   width="17.309931"
   height="20"
   viewBox="0 0 17.309931 20"
   version="1.1"
   sodipodi:docname="ferry.svg"
   inkscape:version="1.0 (4035a4fb49, 2020-05-01)">
  <metadata
     id="metadata11">
    <rdf:RDF>
      <cc:Work
         rdf:about="">
        <dc:format>image/svg+xml</dc:format>
        <dc:type
           rdf:resource="http://purl.org/dc/dcmitype/StillImage" />
        <dc:title>ferry</dc:title>
      </cc:Work>
    </rdf:RDF>
  </metadata>
  <defs
     id="defs9" />
  <sodipodi:namedview
     fit-margin-bottom="0"
     fit-margin-right="0"
     fit-margin-left="0"
     fit-margin-top="0"
     inkscape:document-rotation="0"
     pagecolor="#ffffff"
     bordercolor="#666666"
     borderopacity="1"
     objecttolerance="10"
     gridtolerance="10"
     guidetolerance="10"
     inkscape:pageopacity="0"
     inkscape:pageshadow="2"
     inkscape:window-width="1920"
     inkscape:window-height="1027"
     id="namedview7"
     showgrid="false"
     inkscape:zoom="30.405592"
     inkscape:cx="8.755161"
     inkscape:cy="10.712074"
     inkscape:window-x="-8"
     inkscape:window-y="22"
     inkscape:window-maximized="1"
     inkscape:current-layer="WORKING_ICONS" />
  <title
     id="title2">ferry</title>
  <path
     fill="#ffffff"
     d="m 5.7655385,14.649646 c 0.8981192,0.01199 1.7658794,0.326226 2.4633365,0.892126 l 0.3461986,0.306254 h 0.066576 L 9.054426,15.475195 c 1.307167,-1.080538 3.167717,-1.177872 4.580474,-0.239674 L 16.644165,9.3235132 14.646866,7.9919803 V 3.2650375 C 14.584816,2.199811 13.716257,1.3602792 12.649565,1.3343143 h -0.665766 c 0.04567,-0.68973409 -0.476555,-1.28586135 -1.16629,-1.331533 -0.05498,-0.003599395 -0.110256,-0.003599395 -0.165243,0 H 6.6576658 C 5.9679316,-0.04288981 5.3718043,0.47933705 5.3261327,1.1690711 c -0.0036,0.054992 -0.0036,0.1102512 0,0.1652432 H 4.660366 C 3.5936749,1.3602788 2.7251157,2.199811 2.6630662,3.2650375 V 7.9919803 L 0.6657666,9.3235132 3.6617162,15.355358 C 4.2799471,14.921412 5.0106925,14.676276 5.7655385,14.649646 Z M 3.9945994,3.2650375 c 0.013981,-0.3453996 0.3053206,-0.61397 0.6505871,-0.5999889 0.00506,2.664e-4 0.010117,5.327e-4 0.015179,7.989e-4 h 7.9891985 c 0.344868,-0.022769 0.642997,0.2382113 0.665767,0.5830784 0.0019,0.027563 0.0019,0.055126 0,0.082688 V 7.3262133 L 8.654965,4.6631473 3.9945994,7.2596371 c 0,0 0,-3.9945996 0,-3.9945996 z M 17.30993,17.312712 v 1.331534 c -0.34966,0.02583 -0.674953,0.188545 -0.905441,0.452721 -0.361777,0.383881 -0.822623,0.660307 -1.331534,0.79892 -0.818494,0.241673 -1.703695,0.0566 -2.356815,-0.492667 l -0.519295,-0.466037 c -0.405185,-0.402923 -1.059501,-0.402923 -1.464687,0 -0.186414,0.159784 -0.359514,0.332883 -0.559244,0.492668 -0.975748,0.779745 -2.3719938,0.740331 -3.3022029,-0.09322 l -0.519298,-0.466028 c -0.3813509,-0.333149 -0.950182,-0.333149 -1.331533,0 -0.2529915,0.19973 -0.479352,0.426091 -0.7323433,0.625821 -0.9377988,0.694394 -2.2279213,0.661505 -3.129103,-0.07988 L 0.7456586,19.057019 C 0.5529857,18.836386 0.289209,18.690316 0,18.644246 v -1.331534 c 0.3442014,-0.04261 0.6930629,0.0225 0.9986498,0.186414 0.3704324,0.22929 0.7222236,0.487476 1.0519113,0.772289 0.2730974,0.297599 0.68534,0.42476 1.0785418,0.332884 0.1497975,-0.04434 0.2898747,-0.116642 0.4127753,-0.213045 0.2130454,-0.159784 0.3861446,-0.346198 0.5991899,-0.519298 0.9461874,-0.784007 2.3160688,-0.784007 3.2622562,0 0.2130453,0.1731 0.4127753,0.372831 0.6258206,0.545929 0.3813512,0.33315 0.9501811,0.33315 1.3315331,0 0.213046,-0.173098 0.412776,-0.372829 0.62582,-0.545929 0.948451,-0.79133 2.327122,-0.79133 3.275574,0 0.199729,0.1731 0.386144,0.359514 0.585874,0.519298 0.381351,0.333149 0.950182,0.333149 1.331532,0 l 0.625821,-0.545928 c 0.425424,-0.345134 0.956839,-0.533279 1.504631,-0.532614 z"
     id="path4"
     style="fill:#000000;stroke-width:1.11112" />
</svg>
