<?xml version="1.0" encoding="UTF-8" standalone="no"?>
<svg
   xmlns:dc="http://purl.org/dc/elements/1.1/"
   xmlns:cc="http://creativecommons.org/ns#"
   xmlns:rdf="http://www.w3.org/1999/02/22-rdf-syntax-ns#"
   xmlns:svg="http://www.w3.org/2000/svg"
   xmlns="http://www.w3.org/2000/svg"
   xmlns:sodipodi="http://sodipodi.sourceforge.net/DTD/sodipodi-0.dtd"
   xmlns:inkscape="http://www.inkscape.org/namespaces/inkscape"
   id="WORKING_ICONS"
   data-name="WORKING ICONS"
   width="20"
   height="17.981112"
   viewBox="0 0 20 17.981112"
   version="1.1"
   sodipodi:docname="fork_straight.svg"
   inkscape:version="1.0 (4035a4fb49, 2020-05-01)">
  <metadata
     id="metadata11">
    <rdf:RDF>
      <cc:Work
         rdf:about="">
        <dc:format>image/svg+xml</dc:format>
        <dc:type
           rdf:resource="http://purl.org/dc/dcmitype/StillImage" />
        <dc:title>direction</dc:title>
      </cc:Work>
    </rdf:RDF>
  </metadata>
  <defs
     id="defs9" />
  <sodipodi:namedview
     fit-margin-bottom="0"
     fit-margin-right="0"
     fit-margin-left="0"
     fit-margin-top="0"
     inkscape:document-rotation="0"
     pagecolor="#ffffff"
     bordercolor="#666666"
     borderopacity="1"
     objecttolerance="10"
     gridtolerance="10"
     guidetolerance="10"
     inkscape:pageopacity="0"
     inkscape:pageshadow="2"
     inkscape:window-width="1920"
     inkscape:window-height="1027"
     id="namedview7"
     showgrid="false"
     inkscape:zoom="15.202796"
     inkscape:cx="13.834961"
     inkscape:cy="19.722654"
     inkscape:window-x="-8"
     inkscape:window-y="22"
     inkscape:window-maximized="1"
     inkscape:current-layer="WORKING_ICONS" />
  <title
     id="title2">direction</title>
  <path
     fill="#000000"
     d="m 18.705082,5.1602187 a 0.34193747,0.34193747 0 0 1 0.258535,0.1179261 l 0.72841,0.8401857 a 0.34183646,0.34183646 0 0 1 -0.03781,0.4851503 L 17.341664,8.55461 a 6.0707201,6.0707201 0 0 0 -1.945113,4.820065 l 0.0053,4.049119 a 0.33236376,0.33236376 0 0 1 -0.332375,0.332824 h -1.12963 a 0.3328576,0.3328576 0 0 1 -0.332501,-0.332465 l -6.51e-4,-3.901562 a 7.8467275,7.8467275 0 0 1 2.547123,-6.3145635 l 2.331137,-1.9672123 a 0.34188135,0.34188135 0 0 1 0.220173,-0.080608 m 0,-0.2244715 a 0.56414183,0.56414183 0 0 0 -0.364946,0.1335608 l -2.331137,1.9672123 a 8.1388548,8.1388548 0 0 0 -2.626148,6.5033892 v 3.884277 a 0.55693629,0.55693629 0 0 0 0.556936,0.556937 h 1.129619 a 0.55686895,0.55686895 0 0 0 0.556858,-0.557599 l -0.0053,-4.049096 a 5.8566865,5.8566865 0 0 1 1.868725,-4.651106 l 2.30913,-1.9482554 a 0.56628553,0.56628553 0 0 0 0.06273,-0.8037764 L 19.133183,5.1310935 A 0.56505094,0.56505094 0 0 0 18.705037,4.935736 v 0 z M 1.2949138,5.1368288 a 0.34183646,0.34183646 0 0 1 0.2201729,0.080608 l 2.3277697,1.9643275 a 7.85895,7.85895 0 0 1 2.5497945,6.3347887 v 3.884345 A 0.33279026,0.33279026 0 0 1 6.0602422,17.73325 H 4.9305556 a 0.33236376,0.33236376 0 0 1 -0.332375,-0.332835 l 0.00424,-4.027973 A 6.0831783,6.0831783 0 0 0 2.6549419,8.528347 L 0.34583706,6.5800909 A 0.34183646,0.34183646 0 0 1 0.30802486,6.0949406 L 1.0364349,5.2547549 A 0.34193747,0.34193747 0 0 1 1.29497,5.1368288 m 0,-0.2244716 A 0.56505094,0.56505094 0 0 0 0.86682426,5.1077148 l -0.7284101,0.8401857 a 0.56628553,0.56628553 0 0 0 0.062684,0.8037539 L 2.5101914,8.69991 a 5.8566865,5.8566865 0 0 1 1.8687255,4.651106 l -0.00528,4.049096 a 0.55686895,0.55686895 0 0 0 0.5569138,0.55761 H 6.0602422 A 0.55686895,0.55686895 0 0 0 6.6171,17.400864 V 13.516553 A 8.1388548,8.1388548 0 0 0 3.9909627,7.0130964 L 1.659826,5.0458841 A 0.56414183,0.56414183 0 0 0 1.2948802,4.9123236 v 0 z M 15.514017,7.1189123 10.010278,0 4.506585,7.1189235 A 0.43389223,0.43389223 0 0 0 4.9661007,7.8187584 L 8.279132,6.3105904 A 0.40131019,0.40131019 0 0 1 8.8879212,6.7341457 V 17.392637 a 0.56506216,0.56506216 0 0 0 0.5650732,0.565085 H 10.567495 A 0.56506216,0.56506216 0 0 0 11.13258,17.392637 V 6.7341457 a 0.40129896,0.40129896 0 0 1 0.608789,-0.4235553 l 3.31302,1.508168 a 0.43390345,0.43390345 0 0 0 0.459572,-0.6998349 z"
     id="path4"
     style="stroke-width:1.12236" />
</svg>
