<?xml version="1.0" encoding="UTF-8" standalone="no"?>
<svg
   xmlns:dc="http://purl.org/dc/elements/1.1/"
   xmlns:cc="http://creativecommons.org/ns#"
   xmlns:rdf="http://www.w3.org/1999/02/22-rdf-syntax-ns#"
   xmlns:svg="http://www.w3.org/2000/svg"
   xmlns="http://www.w3.org/2000/svg"
   xmlns:sodipodi="http://sodipodi.sourceforge.net/DTD/sodipodi-0.dtd"
   xmlns:inkscape="http://www.inkscape.org/namespaces/inkscape"
   id="WORKING_ICONS"
   data-name="WORKING ICONS"
   width="18.546383"
   height="20"
   viewBox="0 0 18.546383 20"
   version="1.1"
   sodipodi:docname="fork_slight_left.svg"
   inkscape:version="1.0 (4035a4fb49, 2020-05-01)">
  <metadata
     id="metadata11">
    <rdf:RDF>
      <cc:Work
         rdf:about="">
        <dc:format>image/svg+xml</dc:format>
        <dc:type
           rdf:resource="http://purl.org/dc/dcmitype/StillImage" />
        <dc:title>direction</dc:title>
      </cc:Work>
    </rdf:RDF>
  </metadata>
  <defs
     id="defs9" />
  <sodipodi:namedview
     fit-margin-bottom="0"
     fit-margin-right="0"
     fit-margin-left="0"
     fit-margin-top="0"
     inkscape:document-rotation="0"
     pagecolor="#ffffff"
     bordercolor="#666666"
     borderopacity="1"
     objecttolerance="10"
     gridtolerance="10"
     guidetolerance="10"
     inkscape:pageopacity="0"
     inkscape:pageshadow="2"
     inkscape:window-width="1920"
     inkscape:window-height="1027"
     id="namedview7"
     showgrid="false"
     inkscape:zoom="21.5"
     inkscape:cx="10.32292"
     inkscape:cy="12.698104"
     inkscape:window-x="-8"
     inkscape:window-y="22"
     inkscape:window-maximized="1"
     inkscape:current-layer="WORKING_ICONS" />
  <title
     id="title2">direction</title>
  <path
     fill="#000000"
     d="m 17.008093,4.7690933 a 0.40628,0.40628 0 0 1 0.307134,0.1400934 l 0.865333,0.99812 A 0.40609333,0.40609333 0 0 1 18.13564,6.4836533 L 15.388387,8.801587 a 7.2118667,7.2118667 0 0 0 -2.310747,5.72612 l 0.0063,4.810253 a 0.39484,0.39484 0 0 1 -0.394854,0.395387 H 11.34708 a 0.39542667,0.39542667 0 0 1 -0.394973,-0.39496 l -7.74e-4,-4.635 a 9.32172,9.32172 0 0 1 3.02592,-7.501547 l 2.769334,-2.337 a 0.40614667,0.40614667 0 0 1 0.26156,-0.09576 m 0,-0.2666667 A 0.67017333,0.67017333 0 0 0 16.5746,4.66108 l -2.769333,2.337 a 9.66876,9.66876 0 0 0 -3.1198,7.72592 v 4.614427 A 0.66162667,0.66162667 0 0 0 11.34708,20 h 1.34196 a 0.66154667,0.66154667 0 0 0 0.661533,-0.662413 l -0.0063,-4.810227 a 6.9576,6.9576 0 0 1 2.22,-5.5254 l 2.743226,-2.3144933 a 0.67277333,0.67277333 0 0 0 0.07447,-0.95484 l -0.865333,-0.99812 a 0.67126667,0.67126667 0 0 0 -0.508627,-0.23208 v 0 z M 10.194813,6.9980267 6.91812,4.2329067 A 0.4768,0.4768 0 0 1 7.011707,3.3567733 L 10.9436,1.55656 A 0.51544,0.51544 0 0 0 10.673013,0.5995333 L 0,0 2.1072533,10.48 a 0.51550667,0.51550667 0 0 0 0.98584,0.13216 l 1.22424,-4.14748 a 0.47677333,0.47677333 0 0 1 0.854,-0.21688 L 8.435627,9.001947 a 6.9575867,6.9575867 0 0 1 2.22,5.525333 l -0.0063,4.810227 A 0.66152,0.66152 0 0 0 11.310947,20 h 1.34204 A 0.66161333,0.66161333 0 0 0 13.31452,19.338373 V 14.724 A 9.6687733,9.6687733 0 0 0 10.194733,6.9980533 Z"
     id="path4"
     style="stroke-width:1.33333" />
</svg>
