<?xml version="1.0" encoding="UTF-8" standalone="no"?>
<svg
   xmlns:dc="http://purl.org/dc/elements/1.1/"
   xmlns:cc="http://creativecommons.org/ns#"
   xmlns:rdf="http://www.w3.org/1999/02/22-rdf-syntax-ns#"
   xmlns:svg="http://www.w3.org/2000/svg"
   xmlns="http://www.w3.org/2000/svg"
   xmlns:sodipodi="http://sodipodi.sourceforge.net/DTD/sodipodi-0.dtd"
   xmlns:inkscape="http://www.inkscape.org/namespaces/inkscape"
   id="WORKING_ICONS"
   data-name="WORKING ICONS"
   width="18.513536"
   height="20"
   viewBox="0 0 18.513536 20"
   version="1.1"
   sodipodi:docname="fork_slight_right.svg"
   inkscape:version="1.0 (4035a4fb49, 2020-05-01)">
  <metadata
     id="metadata11">
    <rdf:RDF>
      <cc:Work
         rdf:about="">
        <dc:format>image/svg+xml</dc:format>
        <dc:type
           rdf:resource="http://purl.org/dc/dcmitype/StillImage" />
        <dc:title>direction</dc:title>
      </cc:Work>
    </rdf:RDF>
  </metadata>
  <defs
     id="defs9" />
  <sodipodi:namedview
     fit-margin-bottom="0"
     fit-margin-right="0"
     fit-margin-left="0"
     fit-margin-top="0"
     inkscape:document-rotation="0"
     pagecolor="#ffffff"
     bordercolor="#666666"
     borderopacity="1"
     objecttolerance="10"
     gridtolerance="10"
     guidetolerance="10"
     inkscape:pageopacity="0"
     inkscape:pageshadow="2"
     inkscape:window-width="1920"
     inkscape:window-height="1027"
     id="namedview7"
     showgrid="false"
     inkscape:zoom="21.5"
     inkscape:cx="11.587053"
     inkscape:cy="13.501857"
     inkscape:window-x="-8"
     inkscape:window-y="22"
     inkscape:window-maximized="1"
     inkscape:current-layer="WORKING_ICONS" />
  <title
     id="title2">direction</title>
  <path
     fill="#000000"
     d="m 1.5384024,4.7690933 a 0.40609333,0.40609333 0 0 1 0.26156,0.09576 L 4.5652958,7.198427 A 9.33624,9.33624 0 0 1 7.5943888,14.724 v 4.614507 a 0.39534667,0.39534667 0 0 1 -0.394893,0.394826 H 5.8574424 a 0.39482667,0.39482667 0 0 1 -0.3948533,-0.3954 L 5.4676391,14.5528 A 7.2266667,7.2266667 0 0 0 3.1540791,8.798133 L 0.41086909,6.4836533 a 0.40605333,0.40605333 0 0 1 -0.04496,-0.5763466 L 1.2312424,4.9091867 A 0.40621333,0.40621333 0 0 1 1.5383758,4.7690933 m 0,-0.2666666 a 0.67126667,0.67126667 0 0 0 -0.5086267,0.23208 l -0.86533332,0.99812 a 0.67273333,0.67273333 0 0 0 0.074507,0.95484 L 2.9821228,9.001947 a 6.9576,6.9576 0 0 1 2.22,5.5254 l -0.00627,4.810226 A 0.66152,0.66152 0 0 0 5.8574424,20 h 1.3420534 a 0.66154667,0.66154667 0 0 0 0.661533,-0.661533 V 14.724 A 9.66876,9.66876 0 0 0 4.7412424,6.9980533 l -2.7693333,-2.337 A 0.67018667,0.67018667 0 0 0 1.5383624,4.5023867 v 0 z M 5.1990024,14.724 v 4.614427 A 0.66161333,0.66161333 0 0 0 5.8605358,20 h 1.34204 a 0.66152,0.66152 0 0 0 0.661533,-0.66244 l -0.0063,-4.810227 A 6.9575867,6.9575867 0 0 1 10.077809,9.002 l 3.26424,-2.7541467 a 0.47677333,0.47677333 0 0 1 0.854,0.21688 L 15.420363,10.6122 A 0.51550667,0.51550667 0 0 0 16.406283,10.48 L 18.513536,0 7.8405228,0.5995333 A 0.51544,0.51544 0 0 0 7.5699358,1.55656 l 3.9318802,1.8002133 a 0.4768,0.4768 0 0 1 0.09359,0.8761334 L 8.3187888,6.9980533 A 9.66876,9.66876 0 0 0 5.1990024,14.724 Z"
     id="path4"
     style="stroke-width:1.33333" />
</svg>
