<?xml version="1.0" encoding="UTF-8" standalone="no"?>
<svg
   xmlns:dc="http://purl.org/dc/elements/1.1/"
   xmlns:cc="http://creativecommons.org/ns#"
   xmlns:rdf="http://www.w3.org/1999/02/22-rdf-syntax-ns#"
   xmlns:svg="http://www.w3.org/2000/svg"
   xmlns="http://www.w3.org/2000/svg"
   xmlns:sodipodi="http://sodipodi.sourceforge.net/DTD/sodipodi-0.dtd"
   xmlns:inkscape="http://www.inkscape.org/namespaces/inkscape"
   id="WORKING_ICONS"
   data-name="WORKING ICONS"
   width="15.275221"
   height="20"
   viewBox="0 0 15.275221 20"
   version="1.1"
   sodipodi:docname="merge_slight_left.svg"
   inkscape:version="1.0 (4035a4fb49, 2020-05-01)">
  <metadata
     id="metadata11">
    <rdf:RDF>
      <cc:Work
         rdf:about="">
        <dc:format>image/svg+xml</dc:format>
        <dc:type
           rdf:resource="http://purl.org/dc/dcmitype/StillImage" />
        <dc:title>direction</dc:title>
      </cc:Work>
    </rdf:RDF>
  </metadata>
  <defs
     id="defs9" />
  <sodipodi:namedview
     fit-margin-bottom="0"
     fit-margin-right="0"
     fit-margin-left="0"
     fit-margin-top="0"
     inkscape:document-rotation="0"
     pagecolor="#ffffff"
     bordercolor="#666666"
     borderopacity="1"
     objecttolerance="10"
     gridtolerance="10"
     guidetolerance="10"
     inkscape:pageopacity="0"
     inkscape:pageshadow="2"
     inkscape:window-width="1920"
     inkscape:window-height="1027"
     id="namedview7"
     showgrid="false"
     inkscape:zoom="21.5"
     inkscape:cx="7.7746014"
     inkscape:cy="12.003334"
     inkscape:window-x="-8"
     inkscape:window-y="22"
     inkscape:window-maximized="1"
     inkscape:current-layer="WORKING_ICONS" />
  <title
     id="title2">direction</title>
  <path
     fill="#000000"
     d="M 6.8383023,9.651259 V 19.4063 a 0.35891315,0.35891315 0 0 1 -0.35849,0.358501 H 5.3152383 A 0.35891315,0.35891315 0 0 1 4.9567485,19.406288 V 9.651259 H 6.8383373 M 7.0735363,9.416061 H 4.7215498 V 19.4063 A 0.59368844,0.59368844 0 0 0 5.3152383,20 h 1.164586 a 0.59371196,0.59371196 0 0 0 0.5937,-0.5937 v -9.990239 0 z M 0.5953658,8.1924043 4.0667215,6.6121633 a 0.42049991,0.42049991 0 0 1 0.6378823,0.4437963 h 0.00118 V 9.367257 a 7.762908,7.762908 0 0 0 3.9775856,6.726928 l 5.0695656,3.157883 a 0.59125414,0.59125414 0 0 0 0.814528,-0.189205 l 0.61829,-0.992174 A 0.59134822,0.59134822 0 0 0 14.996544,17.25602 L 9.9340694,14.102241 A 5.4759068,5.4759068 0 0 1 7.0549553,9.448835 l 0.0019,-2.3944042 A 0.42010008,0.42010008 0 0 1 7.6945664,6.6122574 L 11.16591,8.1924983 A 0.45462724,0.45462724 0 0 0 11.64735,7.4591372 L 5.880597,0 0.1138906,7.4591372 a 0.45462724,0.45462724 0 0 0 0.4814752,0.7332671 z"
     id="path4"
     style="stroke-width:1.17599" />
</svg>
