<?xml version="1.0" encoding="UTF-8" standalone="no"?>
<svg
   xmlns:dc="http://purl.org/dc/elements/1.1/"
   xmlns:cc="http://creativecommons.org/ns#"
   xmlns:rdf="http://www.w3.org/1999/02/22-rdf-syntax-ns#"
   xmlns:svg="http://www.w3.org/2000/svg"
   xmlns="http://www.w3.org/2000/svg"
   xmlns:sodipodi="http://sodipodi.sourceforge.net/DTD/sodipodi-0.dtd"
   xmlns:inkscape="http://www.inkscape.org/namespaces/inkscape"
   inkscape:version="1.0 (4035a4fb49, 2020-05-01)"
   sodipodi:docname="new_name_sharp_left.svg"
   version="1.1"
   viewBox="0 0 20 20"
   height="20"
   width="20"
   data-name="WORKING ICONS"
   id="WORKING_ICONS">
  <metadata
     id="metadata11">
    <rdf:RDF>
      <cc:Work
         rdf:about="">
        <dc:format>image/svg+xml</dc:format>
        <dc:type
           rdf:resource="http://purl.org/dc/dcmitype/StillImage" />
      </cc:Work>
    </rdf:RDF>
  </metadata>
  <defs
     id="defs9" />
  <sodipodi:namedview
     inkscape:current-layer="WORKING_ICONS"
     inkscape:window-maximized="1"
     inkscape:window-y="22"
     inkscape:window-x="-8"
     inkscape:cy="13.910546"
     inkscape:cx="10.232352"
     inkscape:zoom="21.5"
     showgrid="false"
     id="namedview7"
     inkscape:window-height="1027"
     inkscape:window-width="1920"
     inkscape:pageshadow="2"
     inkscape:pageopacity="0"
     guidetolerance="10"
     gridtolerance="10"
     objecttolerance="10"
     borderopacity="1"
     bordercolor="#666666"
     pagecolor="#ffffff" />
  <title
     id="title2">direction</title>
  <path
     style="stroke-width:1.33234"
     id="path4"
     d="M 17.980077,19.999977 A 0.6632279,0.6632279 0 0 1 17.316849,19.336749 V 2.6847052 l -0.372777,-0.00846 a 3.4209018,3.4209018 0 0 0 -2.792195,1.052552 L 6.9635309,9.8747033 A 0.46522814,0.46522814 0 0 0 7.073476,10.716439 l 3.902131,1.856369 a 0.51505784,0.51505784 0 0 1 -0.284375,0.952254 L 0.018484,13.96752 2.2777144,3.5272667 A 0.51509781,0.51509781 0 0 1 3.2646088,3.4097539 l 1.1624708,4.1618724 a 0.47640652,0.47640652 0 0 0 0.8500359,0.229243 l 0.00504,0.006 7.1841365,-6.1408965 a 5.9507047,5.9507047 0 0 1 4.509667,-1.65378625 l 0.351952,0.00266 a 2.5705594,2.5705594 0 0 1 1.910689,0.7579043 2.8012149,2.8012149 0 0 1 0.74229,1.94582285 l 6.26e-4,16.6181893 a 0.6632279,0.6632279 0 0 1 -0.663232,0.663214 z"
     fill="#000000" />
</svg>
