<?xml version="1.0" encoding="UTF-8" standalone="no"?>
<svg
   xmlns:dc="http://purl.org/dc/elements/1.1/"
   xmlns:cc="http://creativecommons.org/ns#"
   xmlns:rdf="http://www.w3.org/1999/02/22-rdf-syntax-ns#"
   xmlns:svg="http://www.w3.org/2000/svg"
   xmlns="http://www.w3.org/2000/svg"
   xmlns:sodipodi="http://sodipodi.sourceforge.net/DTD/sodipodi-0.dtd"
   xmlns:inkscape="http://www.inkscape.org/namespaces/inkscape"
   id="WORKING_ICONS"
   data-name="WORKING ICONS"
   width="17.479399"
   height="20"
   viewBox="0 0 17.479399 20"
   version="1.1"
   sodipodi:docname="off_ramp_right.svg"
   inkscape:version="1.0 (4035a4fb49, 2020-05-01)">
  <metadata
     id="metadata11">
    <rdf:RDF>
      <cc:Work
         rdf:about="">
        <dc:format>image/svg+xml</dc:format>
        <dc:type
           rdf:resource="http://purl.org/dc/dcmitype/StillImage" />
        <dc:title>direction</dc:title>
      </cc:Work>
    </rdf:RDF>
  </metadata>
  <defs
     id="defs9" />
  <sodipodi:namedview
     fit-margin-bottom="0"
     fit-margin-right="0"
     fit-margin-left="0"
     fit-margin-top="0"
     inkscape:document-rotation="0"
     pagecolor="#ffffff"
     bordercolor="#666666"
     borderopacity="1"
     objecttolerance="10"
     gridtolerance="10"
     guidetolerance="10"
     inkscape:pageopacity="0"
     inkscape:pageshadow="2"
     inkscape:window-width="1920"
     inkscape:window-height="1027"
     id="namedview7"
     showgrid="false"
     inkscape:zoom="15.202796"
     inkscape:cx="9.627001"
     inkscape:cy="12.447827"
     inkscape:window-x="-8"
     inkscape:window-y="22"
     inkscape:window-maximized="1"
     inkscape:current-layer="WORKING_ICONS" />
  <title
     id="title2">direction</title>
  <path
     fill="#000000"
     d="m 1.8764133,0.27325207 a 0.37136229,0.37136229 0 0 1 0.3709378,0.3709628 V 19.379332 A 0.37136229,0.37136229 0 0 1 1.8764133,19.750295 H 0.6206435 A 0.37136229,0.37136229 0 0 1 0.2497057,19.379332 V 0.64421487 a 0.37136229,0.37136229 0 0 1 0.3709378,-0.3709628 h 1.2557698 m 0,-0.2497057 H 0.6206435 A 0.62065595,0.62065595 0 0 0 0,0.64421487 V 19.379332 A 0.62065595,0.62065595 0 0 0 0.6206435,20 H 1.8764133 A 0.62065595,0.62065595 0 0 0 2.4970568,19.379332 V 0.64421487 A 0.62065595,0.62065595 0 0 0 1.8764133,0.02354637 Z M 7.501533,7.4918562 h 2.481513 a 0.44647376,0.44647376 0 0 1 0.471169,0.6773012 l -1.67771,3.6854436 a 0.48266859,0.48266859 0 0 0 0.778508,0.511173 L 17.479398,6.2661883 9.554988,0.12093157 A 0.48266859,0.48266859 0 0 0 8.77648,0.63210407 L 10.45419,4.3175601 A 0.4464363,0.4464363 0 0 1 9.983021,4.9947869 H 7.501533 v -0.00227 l -0.01373,0.00228 A 7.5663193,7.5663193 0 0 0 0.0103668,12.577409 v 4.925532 h 0.00388 l -0.0025,1.87675 A 0.61944488,0.61944488 0 0 0 0.631279,19.999997 H 1.8878748 A 0.61954476,0.61954476 0 0 0 2.5074196,19.380456 V 12.577412 A 5.0663035,5.0663035 0 0 1 7.487512,7.4918562 Z"
     id="path4"
     style="stroke-width:1.24853" />
</svg>
