<?xml version="1.0" encoding="UTF-8" standalone="no"?>
<svg
   xmlns:dc="http://purl.org/dc/elements/1.1/"
   xmlns:cc="http://creativecommons.org/ns#"
   xmlns:rdf="http://www.w3.org/1999/02/22-rdf-syntax-ns#"
   xmlns:svg="http://www.w3.org/2000/svg"
   xmlns="http://www.w3.org/2000/svg"
   xmlns:sodipodi="http://sodipodi.sourceforge.net/DTD/sodipodi-0.dtd"
   xmlns:inkscape="http://www.inkscape.org/namespaces/inkscape"
   id="WORKING_ICONS"
   data-name="WORKING ICONS"
   width="12.5"
   height="20"
   viewBox="0 0 12.5 20"
   version="1.1"
   sodipodi:docname="off_ramp_slight_left.svg"
   inkscape:version="1.0 (4035a4fb49, 2020-05-01)">
  <metadata
     id="metadata11">
    <rdf:RDF>
      <cc:Work
         rdf:about="">
        <dc:format>image/svg+xml</dc:format>
        <dc:type
           rdf:resource="http://purl.org/dc/dcmitype/StillImage" />
        <dc:title>direction</dc:title>
      </cc:Work>
    </rdf:RDF>
  </metadata>
  <defs
     id="defs9" />
  <sodipodi:namedview
     fit-margin-bottom="0"
     fit-margin-right="0"
     fit-margin-left="0"
     fit-margin-top="0"
     inkscape:document-rotation="0"
     pagecolor="#ffffff"
     bordercolor="#666666"
     borderopacity="1"
     objecttolerance="10"
     gridtolerance="10"
     guidetolerance="10"
     inkscape:pageopacity="0"
     inkscape:pageshadow="2"
     inkscape:window-width="1920"
     inkscape:window-height="1027"
     id="namedview7"
     showgrid="false"
     inkscape:zoom="21.5"
     inkscape:cx="9.465776"
     inkscape:cy="13.801562"
     inkscape:window-x="-8"
     inkscape:window-y="22"
     inkscape:window-maximized="1"
     inkscape:current-layer="WORKING_ICONS" />
  <title
     id="title2">direction</title>
  <path
     fill="#000000"
     d="m 11.878625,0.24999999 a 0.3718,0.3718 0 0 1 0.371375,0.3714 V 19.3786 A 0.3718,0.3718 0 0 1 11.878625,19.75 h -1.25725 A 0.3718,0.3718 0 0 1 10.25,19.3786 V 0.62139999 a 0.3718,0.3718 0 0 1 0.371375,-0.3714 h 1.25725 M 11.878625,0 h -1.25725 A 0.6213875,0.6213875 0 0 0 10,0.62139999 V 19.3786 A 0.6213875,0.6213875 0 0 0 10.621375,20 h 1.25725 A 0.6213875,0.6213875 0 0 0 12.5,19.3786 V 0.62139999 A 0.6213875,0.6213875 0 0 0 11.878625,0 Z M 9.557575,7.810675 6.48575,5.21835 A 0.447,0.447 0 0 1 6.57349,4.396975 l 3.686138,-1.6877 A 0.483225,0.483225 0 0 0 10.00595,1.8120625 L 0,1.25 1.97555,11.075 a 0.4832875,0.4832875 0 0 0 0.924225,0.1239 L 4.0475,7.3106375 A 0.446975,0.446975 0 0 1 4.848125,7.1073125 L 7.90835,9.689325 a 6.5227375,6.5227375 0 0 1 2.08125,5.18 L 9.9837,19.378912 A 0.620175,0.620175 0 0 0 10.604025,20 h 1.258162 a 0.6202625,0.6202625 0 0 0 0.620188,-0.620275 V 15.05375 a 9.0644625,9.0644625 0 0 0 -2.9248,-7.243075 z"
     id="path4"
     style="stroke-width:1.25" />
</svg>
