<?xml version="1.0" encoding="UTF-8" standalone="no"?>
<svg
   xmlns:dc="http://purl.org/dc/elements/1.1/"
   xmlns:cc="http://creativecommons.org/ns#"
   xmlns:rdf="http://www.w3.org/1999/02/22-rdf-syntax-ns#"
   xmlns:svg="http://www.w3.org/2000/svg"
   xmlns="http://www.w3.org/2000/svg"
   xmlns:sodipodi="http://sodipodi.sourceforge.net/DTD/sodipodi-0.dtd"
   xmlns:inkscape="http://www.inkscape.org/namespaces/inkscape"
   id="WORKING_ICONS"
   data-name="WORKING ICONS"
   width="10.002602"
   height="20"
   viewBox="0 0 10.002602 20"
   version="1.1"
   sodipodi:docname="roundabout_straight.svg"
   inkscape:version="1.0 (4035a4fb49, 2020-05-01)">
  <metadata
     id="metadata11">
    <rdf:RDF>
      <cc:Work
         rdf:about="">
        <dc:format>image/svg+xml</dc:format>
        <dc:type
           rdf:resource="http://purl.org/dc/dcmitype/StillImage" />
        <dc:title>direction</dc:title>
      </cc:Work>
    </rdf:RDF>
  </metadata>
  <defs
     id="defs9" />
  <sodipodi:namedview
     fit-margin-bottom="0"
     fit-margin-right="0"
     fit-margin-left="0"
     fit-margin-top="0"
     inkscape:document-rotation="0"
     pagecolor="#ffffff"
     bordercolor="#666666"
     borderopacity="1"
     objecttolerance="10"
     gridtolerance="10"
     guidetolerance="10"
     inkscape:pageopacity="0"
     inkscape:pageshadow="2"
     inkscape:window-width="1920"
     inkscape:window-height="1027"
     id="namedview7"
     showgrid="false"
     inkscape:zoom="10.75"
     inkscape:cx="-5.7312914"
     inkscape:cy="22.862341"
     inkscape:window-x="-8"
     inkscape:window-y="22"
     inkscape:window-maximized="1"
     inkscape:current-layer="WORKING_ICONS" />
  <title
     id="title2">direction</title>
  <path
     fill="#000000"
     d="M 5.0012971,7.7468218 A 4.7512324,4.7512324 0 1 1 0.250065,12.498054 4.7565712,4.7565712 0 0 1 5.0012971,7.7468218 m 0,8.7522702 a 4.0010378,4.0010378 0 1 0 -4.0010376,-4.001038 4.0055764,4.0055764 0 0 0 4.0010376,4.001038 m 0,-9.002335 A 5.0012972,5.0012972 0 1 0 10.002594,12.498054 5.0070237,5.0070237 0 0 0 5.0012971,7.496757 Z m 0,8.75227 A 3.7509729,3.7509729 0 1 1 8.7522704,12.498054 3.755074,3.755074 0 0 1 5.0012971,16.249027 Z M 8.5404284,8.963812 A 4.9654754,4.9654754 0 0 0 5.6264594,7.5352169 v -3.784244 a 0.22357049,0.22357049 0 0 1 0.339138,-0.2359612 l 1.845341,0.8400554 A 0.24167518,0.24167518 0 0 0 8.0668924,3.9652535 L 5.0012971,0 1.9357022,3.965266 a 0.24168769,0.24168769 0 0 0 0.2559539,0.3898136 l 1.845479,-0.8400554 a 0.22354548,0.22354548 0 0 1 0.339,0.2359487 V 8.747081 h 0.625162 a 3.750973,3.750973 0 1 1 0,7.501946 H 4.3761351 V 20 h 1.2503243 v -2.539109 a 5.0022475,5.0022475 0 0 0 2.913969,-8.497079 z"
     id="path4"
     style="stroke-width:1.25032" />
</svg>
