<svg id="WORKING_ICONS" data-name="WORKING ICONS" xmlns="http://www.w3.org/2000/svg" width="20" height="20" viewBox="0 0 20 20">
  <title>direction</title>
  <path fill="#ffffff" d="M10,5a2,2,0,1,1,2-2A2,2,0,0,1,10,5Zm4.91284,8.35114L10.00916,7.0083,5.10547,13.35114a0.38659,0.38659,0,0,0,.40942.62354l2.95184-1.34375A0.35542,0.35542,0,0,1,9.00769,13H9v5.50006A0.49992,0.49992,0,0,0,9.49994,19h1.00012A0.49992,0.49992,0,0,0,11,18.50006V13.0083h0.00916a0.35757,0.35757,0,0,1,.54242-0.37738l2.95184,1.34375A0.3866,0.3866,0,0,0,14.91284,13.35114Z"/>
</svg>
