<svg id="WORKING_ICONS" data-name="WORKING ICONS" xmlns="http://www.w3.org/2000/svg" width="20" height="20" viewBox="0 0 20 20">
  <title>direction</title>
  <path fill="#ffffff" d="M3,12a2,2,0,1,1,2-2A2,2,0,0,1,3,12Zm10.00293-.96332a4.05782,4.05782,0,0,1,3.98877,4.07324H17v1.37775A0.51232,0.51232,0,0,0,17.51233,17h0.97534A0.51232,0.51232,0,0,0,19,16.48767V15H18.98615a6.05607,6.05607,0,0,0-5.9834-5.96332l-0.011-.00183,0.00012,0.02008H12V9.04584a0.35757,0.35757,0,0,1-.37738-0.54242l1.34375-2.95184a0.38659,0.38659,0,0,0-.62354-0.40942L6,10.04584l6.34283,4.90369a0.3866,0.3866,0,0,0,.62354-0.40942l-1.34375-2.95184A0.35757,0.35757,0,0,1,12,11.04584v0.00909h1"/>
</svg>
