<svg id="WORKING_ICONS" data-name="WORKING ICONS" xmlns="http://www.w3.org/2000/svg" width="20" height="20" viewBox="0 0 20 20">
  <title>direction</title>
  <path fill="#ffffff" d="M17.35551,4.05855L11.76558,9.64848a0.49713,0.49713,0,0,0,0,.703l5.58993,5.58993a0.49713,0.49713,0,0,1,0,.703l-0.711.711a0.49713,0.49713,0,0,1-.703,0l-5.58993-5.58993a0.49713,0.49713,0,0,0-.703,0L4.05855,17.35551a0.49713,0.49713,0,0,1-.703,0l-0.711-.711a0.49713,0.49713,0,0,1,0-.703l5.58993-5.58993a0.49713,0.49713,0,0,0,0-.703L2.64449,4.05855a0.49713,0.49713,0,0,1,0-.703l0.711-.711a0.49713,0.49713,0,0,1,.703,0L9.64848,8.23442a0.49713,0.49713,0,0,0,.703,0l5.58993-5.58993a0.49713,0.49713,0,0,1,.703,0l0.711,0.711A0.49713,0.49713,0,0,1,17.35551,4.05855Z"/>
</svg>
