<svg id="WORKING_ICONS" data-name="WORKING ICONS" xmlns="http://www.w3.org/2000/svg" width="20" height="20" viewBox="0 0 20 20">
  <title>direction</title>
  <path fill="#ffffff" d="M7.35395,8.24854L9.81141,6.17468a0.3576,0.3576,0,0,0-.07019-0.6571L6.7923,4.16742a0.38658,0.38658,0,0,1,.20294-0.71777L15,3l-1.58044,7.86a0.38663,0.38663,0,0,1-.73938.09912L11.762,7.84851a0.35758,0.35758,0,0,0-.6405-0.16266L8.67328,9.75146a5.21819,5.21819,0,0,0-1.665,4.144l0.0047,3.60767A0.49614,0.49614,0,0,1,6.51679,18H5.51026a0.49621,0.49621,0,0,1-.49615-0.49622V14.043A7.25157,7.25157,0,0,1,7.35395,8.24854Z"/>
</svg>
