<svg id="WORKING_ICONS" data-name="WORKING ICONS" xmlns="http://www.w3.org/2000/svg" width="20" height="20" viewBox="0 0 20 20">
  <title>direction</title>
  <path fill="#ffffff" d="M3,17a2,2,0,1,1,2,2A2,2,0,0,1,3,17Zm7-8.94507h1V8.04584a0.35757,0.35757,0,0,1,.37738.54242L10.03363,11.5401a0.3866,0.3866,0,0,0,.62354.40942L17,7.04584,10.65717,2.14215a0.38659,0.38659,0,0,0-.62354.40942l1.34375,2.95184A0.35757,0.35757,0,0,1,11,6.04584V6.05493H10.00818l0.00012-.02008-0.011.00183A6.05607,6.05607,0,0,0,4.01385,12H4v1.48767A0.51232,0.51232,0,0,0,4.51233,14H5.48767A0.51232,0.51232,0,0,0,6,13.48767V12.10992H6.0083A4.05782,4.05782,0,0,1,9.99707,8.03668"/>
</svg>
