<svg id="WORKING_ICONS" data-name="WORKING ICONS" xmlns="http://www.w3.org/2000/svg" width="20" height="20" viewBox="0 0 20 20">
  <title>direction</title>
  <path fill="#ffffff" d="M15,19a2,2,0,1,1,2-2A2,2,0,0,1,15,19ZM10.00293,8.03668a4.05782,4.05782,0,0,1,3.98877,4.07324H14v1.37775A0.51232,0.51232,0,0,0,14.51233,14h0.97534A0.51232,0.51232,0,0,0,16,13.48767V12H15.98615a6.05607,6.05607,0,0,0-5.9834-5.96332l-0.011-.00183L9.99182,6.05493H9V6.04584a0.35757,0.35757,0,0,1-.37738-0.54242L9.96637,2.55157a0.38659,0.38659,0,0,0-.62354-0.40942L3,7.04584l6.34283,4.90369a0.3866,0.3866,0,0,0,.62354-0.40942L8.62262,8.58826A0.35757,0.35757,0,0,1,9,8.04584V8.05493h1"/>
</svg>
