<svg id="WORKING_ICONS" data-name="WORKING ICONS" xmlns="http://www.w3.org/2000/svg" width="20" height="20" viewBox="0 0 20 20">
  <title>direction</title>
  <path fill="#ffffff" d="M9.98172,19a2,2,0,1,1,2-2A2,2,0,0,1,9.98172,19ZM14.89456,7.34283L9.99087,1,5.08719,7.34283a0.38659,0.38659,0,0,0,.40942.62354L8.44845,6.62262a0.35542,0.35542,0,0,1,.541.36908H8.98172v5.50006a0.49992,0.49992,0,0,0,.49994.49994h1.00012a0.49992,0.49992,0,0,0,.49994-0.49994V7h0.00916a0.35757,0.35757,0,0,1,.54242-0.37738l2.95184,1.34375A0.3866,0.3866,0,0,0,14.89456,7.34283Z"/>
</svg>
