<?xml version="1.0" encoding="UTF-8" standalone="no"?>
<svg
   xmlns:dc="http://purl.org/dc/elements/1.1/"
   xmlns:cc="http://creativecommons.org/ns#"
   xmlns:rdf="http://www.w3.org/1999/02/22-rdf-syntax-ns#"
   xmlns:svg="http://www.w3.org/2000/svg"
   xmlns="http://www.w3.org/2000/svg"
   xmlns:sodipodi="http://sodipodi.sourceforge.net/DTD/sodipodi-0.dtd"
   xmlns:inkscape="http://www.inkscape.org/namespaces/inkscape"
   inkscape:version="1.0 (4035a4fb49, 2020-05-01)"
   sodipodi:docname="depart_right.svg"
   version="1.1"
   viewBox="0 0 20 20"
   height="20"
   width="20"
   data-name="WORKING ICONS"
   id="WORKING_ICONS">
  <metadata
     id="metadata11">
    <rdf:RDF>
      <cc:Work
         rdf:about="">
        <dc:format>image/svg+xml</dc:format>
        <dc:type
           rdf:resource="http://purl.org/dc/dcmitype/StillImage" />
      </cc:Work>
    </rdf:RDF>
  </metadata>
  <defs
     id="defs9" />
  <sodipodi:namedview
     inkscape:current-layer="WORKING_ICONS"
     inkscape:window-maximized="1"
     inkscape:window-y="22"
     inkscape:window-x="-8"
     inkscape:cy="11.499285"
     inkscape:cx="12.071449"
     inkscape:zoom="21.5"
     showgrid="false"
     id="namedview7"
     inkscape:window-height="1027"
     inkscape:window-width="1920"
     inkscape:pageshadow="2"
     inkscape:pageopacity="0"
     guidetolerance="10"
     gridtolerance="10"
     objecttolerance="10"
     borderopacity="1"
     bordercolor="#666666"
     pagecolor="#ffffff" />
  <title
     id="title2">direction</title>
  <path
     style="stroke-width:1.17961"
     id="path4"
     d="M 1.742707,17.640774 A 2.3592266,2.3592266 0 1 1 4.1019336,20 2.3592266,2.3592266 0 0 1 1.742707,17.640774 Z M 10,7.0890499 h 1.179613 v -0.010723 a 0.42179433,0.42179433 0 0 1 0.445163,0.6398459 l -1.585105,3.4820302 a 0.45603851,0.45603851 0 0 0 0.735536,0.482957 L 18.257293,5.8987139 10.775207,0.11425589 a 0.45602671,0.45602671 0 0 0 -0.735536,0.4829573 l 1.585105,3.48202971 a 0.42179433,0.42179433 0 0 1 -0.445163,0.6398577 v 0.010723 h -1.169964 l 1.42e-4,-0.023687 -0.01298,0.00216 A 7.1438208,7.1438208 0 0 0 2.938658,11.742707 H 2.92232 v 1.754875 a 0.60433949,0.60433949 0 0 0 0.6043513,0.604352 h 1.150524 A 0.60433949,0.60433949 0 0 0 5.2815466,13.497582 V 11.87237 h 0.00979 A 4.7866585,4.7866585 0 0 1 9.996544,7.0675219"
     fill="#000000" />
</svg>
