<svg id="WORKING_ICONS" data-name="WORKING ICONS" xmlns="http://www.w3.org/2000/svg" width="20" height="20" viewBox="0 0 20 20">
  <title>direction</title>
  <path fill="#ffffff" d="M16.50354,6.2A0.29678,0.29678,0,0,1,16.8,6.49646V7.50354A0.29678,0.29678,0,0,1,16.50354,7.8H7.2V6.2h9.30353m0-.2H7V8h9.50354A0.49645,0.49645,0,0,0,17,7.50354V6.49646A0.49645,0.49645,0,0,0,16.50354,6h0ZM10,5.98169H8.01245a0.35757,0.35757,0,0,1-.37738-0.54242L8.97882,2.48743A0.38659,0.38659,0,0,0,8.35529,2.078L2.0083,7l6.347,4.88544A0.38659,0.38659,0,0,0,8.97882,11.476L7.63507,8.52417a0.3576,0.3576,0,0,1,.37738-0.54248h1.99878A4.05782,4.05782,0,0,1,14,12.05493v5.44885A0.49622,0.49622,0,0,0,14.49622,18h1.00647a0.49614,0.49614,0,0,0,.49615-0.49683L15.99689,16H16V12.05493a6.06019,6.06019,0,0,0-5.989-6.07324L10,5.97986"/>
</svg>
