<svg id="WORKING_ICONS" data-name="WORKING ICONS" xmlns="http://www.w3.org/2000/svg" width="20" height="20" viewBox="0 0 20 20">
  <title>direction</title>
  <path fill="#ffffff" d="M12.8,6.2V7.8H2.50119A0.30152,0.30152,0,0,1,2.2,7.49882V6.50118A0.30152,0.30152,0,0,1,2.50119,6.2H12.8M13,6H2.50119A0.50119,0.50119,0,0,0,2,6.50118V7.49882A0.50119,0.50119,0,0,0,2.50119,8H13V6h0ZM10,7.98169h1.98755a0.3576,0.3576,0,0,1,.37738.54248L11.02118,11.476a0.38659,0.38659,0,0,0,.62354.40942L17.9917,7l-6.347-4.922a0.38659,0.38659,0,0,0-.62354.40942l1.34375,2.95184a0.35757,0.35757,0,0,1-.37738.54242H10V5.97986l-0.011.00183A6.06019,6.06019,0,0,0,4,12.05493V16H4.00311l-0.002,1.50317A0.49614,0.49614,0,0,0,4.49731,18H5.50378A0.49622,0.49622,0,0,0,6,17.50378V12.05493A4.05782,4.05782,0,0,1,9.98877,7.98169H10Z"/>
</svg>
