<?xml version="1.0" encoding="UTF-8" standalone="no"?>
<svg
   xmlns:dc="http://purl.org/dc/elements/1.1/"
   xmlns:cc="http://creativecommons.org/ns#"
   xmlns:rdf="http://www.w3.org/1999/02/22-rdf-syntax-ns#"
   xmlns:svg="http://www.w3.org/2000/svg"
   xmlns="http://www.w3.org/2000/svg"
   xmlns:sodipodi="http://sodipodi.sourceforge.net/DTD/sodipodi-0.dtd"
   xmlns:inkscape="http://www.inkscape.org/namespaces/inkscape"
   inkscape:version="1.0 (4035a4fb49, 2020-05-01)"
   sodipodi:docname="ferry.svg"
   version="1.1"
   viewBox="0 0 20 20"
   height="20"
   width="20"
   data-name="WORKING ICONS"
   id="WORKING_ICONS">
  <metadata
     id="metadata11">
    <rdf:RDF>
      <cc:Work
         rdf:about="">
        <dc:format>image/svg+xml</dc:format>
        <dc:type
           rdf:resource="http://purl.org/dc/dcmitype/StillImage" />
        <dc:title>ferry</dc:title>
      </cc:Work>
    </rdf:RDF>
  </metadata>
  <defs
     id="defs9" />
  <sodipodi:namedview
     inkscape:current-layer="WORKING_ICONS"
     inkscape:window-maximized="1"
     inkscape:window-y="22"
     inkscape:window-x="-8"
     inkscape:cy="10.712074"
     inkscape:cx="10.100196"
     inkscape:zoom="30.405592"
     showgrid="false"
     id="namedview7"
     inkscape:window-height="1027"
     inkscape:window-width="1920"
     inkscape:pageshadow="2"
     inkscape:pageopacity="0"
     guidetolerance="10"
     gridtolerance="10"
     objecttolerance="10"
     borderopacity="1"
     bordercolor="#666666"
     pagecolor="#ffffff" />
  <title
     id="title2">ferry</title>
  <path
     style="fill:#000000;stroke-width:1.11112"
     id="path4"
     d="m 7.1105735,14.649646 c 0.8981192,0.01199 1.7658794,0.326226 2.4633365,0.892126 l 0.3461986,0.306254 h 0.066576 l 0.4127764,-0.372831 c 1.307167,-1.080538 3.167717,-1.177872 4.580474,-0.239674 L 17.9892,9.323513 15.991901,7.9919801 V 3.2650373 C 15.929851,2.1998108 15.061292,1.360279 13.9946,1.3343141 h -0.665766 c 0.04567,-0.68973413 -0.476555,-1.28586139 -1.16629,-1.33153304 -0.05498,-0.003599395 -0.110256,-0.003599395 -0.165243,0 H 8.0027008 C 7.3129666,-0.04289005 6.7168393,0.47933681 6.6711677,1.1690709 c -0.0036,0.054992 -0.0036,0.1102512 0,0.1652432 H 6.005401 C 4.9387099,1.3602786 4.0701507,2.1998108 4.0081012,3.2650373 V 7.9919801 L 2.0108016,9.323513 5.0067512,15.355358 C 5.6249821,14.921412 6.3557275,14.676276 7.1105735,14.649646 Z M 5.3396344,3.2650373 c 0.013981,-0.3453996 0.3053206,-0.61397 0.6505871,-0.5999889 0.00506,2.664e-4 0.010117,5.327e-4 0.015179,7.989e-4 h 7.9891985 c 0.344868,-0.022769 0.642997,0.2382113 0.665767,0.5830784 0.0019,0.027563 0.0019,0.055126 0,0.082688 V 7.3262131 L 10,4.6631471 5.3396344,7.2596369 c 0,0 0,-3.9945996 0,-3.9945996 z M 18.654965,17.312712 v 1.331534 c -0.34966,0.02583 -0.674953,0.188545 -0.905441,0.452721 -0.361777,0.383881 -0.822623,0.660307 -1.331534,0.79892 -0.818494,0.241673 -1.703695,0.0566 -2.356815,-0.492667 L 13.54188,18.937183 c -0.405185,-0.402923 -1.059501,-0.402923 -1.464687,0 -0.186414,0.159784 -0.359514,0.332883 -0.559244,0.492668 -0.975748,0.779745 -2.3719938,0.740331 -3.3022029,-0.09322 l -0.519298,-0.466028 c -0.3813509,-0.333149 -0.950182,-0.333149 -1.331533,0 -0.2529915,0.19973 -0.479352,0.426091 -0.7323433,0.625821 -0.9377988,0.694394 -2.2279213,0.661505 -3.129103,-0.07988 L 2.0906936,19.057019 C 1.8980207,18.836386 1.634244,18.690316 1.345035,18.644246 v -1.331534 c 0.3442014,-0.04261 0.6930629,0.0225 0.9986498,0.186414 0.3704324,0.22929 0.7222236,0.487476 1.0519113,0.772289 0.2730974,0.297599 0.68534,0.42476 1.0785418,0.332884 0.1497975,-0.04434 0.2898747,-0.116642 0.4127753,-0.213045 0.2130454,-0.159784 0.3861446,-0.346198 0.5991899,-0.519298 0.9461874,-0.784007 2.3160688,-0.784007 3.2622562,0 0.2130453,0.1731 0.4127753,0.372831 0.6258206,0.545929 0.3813512,0.33315 0.9501811,0.33315 1.3315331,0 0.213046,-0.173098 0.412776,-0.372829 0.62582,-0.545929 0.948451,-0.79133 2.327122,-0.79133 3.275574,0 0.199729,0.1731 0.386144,0.359514 0.585874,0.519298 0.381351,0.333149 0.950182,0.333149 1.331532,0 l 0.625821,-0.545928 c 0.425424,-0.345134 0.956839,-0.533279 1.504631,-0.532614 z"
     fill="#ffffff" />
</svg>
