<svg id="WORKING_ICONS" data-name="WORKING ICONS" xmlns="http://www.w3.org/2000/svg" width="20" height="20" viewBox="0 0 20 20">
  <title>direction</title>
  <path fill="#ffffff" d="M2.27386,6.57682A0.30457,0.30457,0,0,1,2.47,6.64864L4.544,8.39882A7.00218,7.00218,0,0,1,6.81586,14.043v3.46088A0.29651,0.29651,0,0,1,6.51968,17.8H5.51318A0.29613,0.29613,0,0,1,5.217,17.50343L5.22079,13.9146a5.42,5.42,0,0,0-1.73517-4.316L1.42825,7.86274a0.30461,0.30461,0,0,1-.03372-0.43226l0.649-.74859a0.30466,0.30466,0,0,1,.23035-0.10507m0-.2a0.50345,0.50345,0,0,0-.38147.17406l-0.649.74859a0.50458,0.50458,0,0,0,.05588.71613L3.35666,9.75146a5.2182,5.2182,0,0,1,1.665,4.14405L5.017,17.50317A0.49617,0.49617,0,0,0,5.51318,18h1.0065a0.49616,0.49616,0,0,0,.49615-0.49615V14.043A7.25157,7.25157,0,0,0,4.676,8.24854L2.599,6.49579a0.50264,0.50264,0,0,0-.32516-0.119h0ZM11.0083,7.98169h1.98755a0.3576,0.3576,0,0,1,.37738.54248L12.02948,11.476a0.38659,0.38659,0,0,0,.62354.40942L19,7,12.653,2.078a0.38659,0.38659,0,0,0-.62354.40942l1.34375,2.95184a0.35757,0.35757,0,0,1-.37738.54242H11.0083V5.97986l-0.011.00183a6.06019,6.06019,0,0,0-5.989,6.07324V16H5.01141l-0.002,1.50317A0.49614,0.49614,0,0,0,5.50562,18H6.51208a0.49622,0.49622,0,0,0,.49622-0.49622V12.05493a4.05782,4.05782,0,0,1,3.98877-4.07324H11.0083Z"/>
</svg>
