<svg id="WORKING_ICONS" data-name="WORKING ICONS" xmlns="http://www.w3.org/2000/svg" width="20" height="20" viewBox="0 0 20 20">
  <title>direction</title>
  <path fill="#ffffff" d="M19,3l-1.58044,7.86a0.38663,0.38663,0,0,1-.73938.09912L15.762,7.84851a0.35758,0.35758,0,0,0-.6405-0.16266L12.67328,9.75146a5.21819,5.21819,0,0,0-1.665,4.144l0.0047,3.60767A0.49614,0.49614,0,0,1,10.51678,18H9.48322a0.49614,0.49614,0,0,1-.49615-0.49683l0.0047-3.60767a5.21819,5.21819,0,0,0-1.665-4.144L4.87854,7.68585a0.35758,0.35758,0,0,0-.6405.16266l-0.91821,3.1106A0.38663,0.38663,0,0,1,2.58044,10.86L1,3,9.00476,3.44965a0.38658,0.38658,0,0,1,.20294.71777L6.25879,5.51758a0.3576,0.3576,0,0,0-.07019.6571L8.64606,8.24854A6.64064,6.64064,0,0,1,10,9.89148a6.64064,6.64064,0,0,1,1.35394-1.64294L13.8114,6.17468a0.3576,0.3576,0,0,0-.07019-0.6571L10.7923,4.16742a0.38658,0.38658,0,0,1,.20294-0.71777Z"/>
</svg>
