<?xml version="1.0" encoding="UTF-8" standalone="no"?>
<svg
   xmlns:dc="http://purl.org/dc/elements/1.1/"
   xmlns:cc="http://creativecommons.org/ns#"
   xmlns:rdf="http://www.w3.org/1999/02/22-rdf-syntax-ns#"
   xmlns:svg="http://www.w3.org/2000/svg"
   xmlns="http://www.w3.org/2000/svg"
   xmlns:sodipodi="http://sodipodi.sourceforge.net/DTD/sodipodi-0.dtd"
   xmlns:inkscape="http://www.inkscape.org/namespaces/inkscape"
   inkscape:version="1.0 (4035a4fb49, 2020-05-01)"
   sodipodi:docname="fork.svg"
   version="1.1"
   viewBox="0 0 20 20"
   height="20"
   width="20"
   data-name="WORKING ICONS"
   id="WORKING_ICONS">
  <metadata
     id="metadata11">
    <rdf:RDF>
      <cc:Work
         rdf:about="">
        <dc:format>image/svg+xml</dc:format>
        <dc:type
           rdf:resource="http://purl.org/dc/dcmitype/StillImage" />
      </cc:Work>
    </rdf:RDF>
  </metadata>
  <defs
     id="defs9" />
  <sodipodi:namedview
     inkscape:current-layer="WORKING_ICONS"
     inkscape:window-maximized="1"
     inkscape:window-y="22"
     inkscape:window-x="-8"
     inkscape:cy="14.142136"
     inkscape:cx="11.485662"
     inkscape:zoom="21.5"
     showgrid="false"
     id="namedview7"
     inkscape:window-height="1027"
     inkscape:window-width="1920"
     inkscape:pageshadow="2"
     inkscape:pageopacity="0"
     guidetolerance="10"
     gridtolerance="10"
     objecttolerance="10"
     borderopacity="1"
     bordercolor="#666666"
     pagecolor="#ffffff" />
  <title
     id="title2">direction</title>
  <path
     style="stroke-width:1.11111"
     id="path4"
     d="m 20,1.6666665 -1.756044,8.7333325 a 0.42958889,0.42958889 0 0 1 -0.821534,0.110134 l -1.0202,-3.4562332 A 0.39731111,0.39731111 0 0 0 15.690556,6.8731665 l -2.720245,2.295122 a 5.7979889,5.7979889 0 0 0 -1.85,4.6044445 l 0.0052,4.008522 A 0.55126667,0.55126667 0 0 1 10.5742,18.333333 H 9.4258 A 0.55126667,0.55126667 0 0 1 8.8745222,17.781299 l 0.00522,-4.008522 a 5.7979889,5.7979889 0 0 0 -1.85,-4.6044435 L 4.3094889,6.8731665 A 0.39731111,0.39731111 0 0 0 3.5978222,7.0538998 L 2.5775889,10.510122 A 0.42958889,0.42958889 0 0 1 1.7560444,10.399999 L 0,1.6666665 8.8941778,2.1662776 A 0.42953333,0.42953333 0 0 1 9.119667,2.9637998 L 5.8431,4.4639776 A 0.39733333,0.39733333 0 0 0 5.7651111,5.1940887 L 8.4956222,7.4983776 A 7.3784889,7.3784889 0 0 1 10,9.3238665 7.3784889,7.3784889 0 0 1 11.504378,7.4983776 L 14.234889,5.1940887 A 0.39733333,0.39733333 0 0 0 14.1569,4.4639776 L 10.880333,2.9637998 a 0.42953333,0.42953333 0 0 1 0.225489,-0.7975222 z"
     fill="#000000" />
</svg>
