<svg id="WORKING_ICONS" data-name="WORKING ICONS" xmlns="http://www.w3.org/2000/svg" width="20" height="20" viewBox="0 0 20 20">
  <title>direction</title>
  <path fill="#ffffff" d="M17.73611,6.57682a0.30465,0.30465,0,0,1,.23032.10507l0.649,0.74859a0.30457,0.30457,0,0,1-.03369.43226L16.5213,9.60119a5.4089,5.4089,0,0,0-1.73306,4.29459l0.0047,3.60769A0.29612,0.29612,0,0,1,14.4968,17.8H13.49033a0.29657,0.29657,0,0,1-.29623-0.29622l-0.00058-3.47624A6.99129,6.99129,0,0,1,15.463,8.40138l2.077-1.75275a0.30475,0.30475,0,0,1,.1962-0.07182m0-.2a0.50269,0.50269,0,0,0-.32516.119L15.334,8.24854A7.25157,7.25157,0,0,0,12.99411,14.043v3.46082A0.49622,0.49622,0,0,0,13.49033,18H14.4968a0.49614,0.49614,0,0,0,.49615-0.49681l-0.0047-3.60767a5.2182,5.2182,0,0,1,1.665-4.14405L18.71066,8.0156a0.50455,0.50455,0,0,0,.05585-0.71613l-0.649-.74859a0.50345,0.50345,0,0,0-.38147-0.17406h0ZM9.00078,5.98169H7.01323a0.35757,0.35757,0,0,1-.37738-0.54242L7.9796,2.48743A0.38659,0.38659,0,0,0,7.35606,2.078L1.00908,7l6.347,4.88544A0.38659,0.38659,0,0,0,7.9796,11.476L6.63585,8.52417a0.3576,0.3576,0,0,1,.37738-0.54248H9.012a4.05782,4.05782,0,0,1,3.98877,4.07324v5.44885A0.49622,0.49622,0,0,0,13.497,18h1.00647a0.49614,0.49614,0,0,0,.49615-0.49683L14.99766,16h0.00311V12.05493a6.06019,6.06019,0,0,0-5.989-6.07324l-0.011-.00183"/>
</svg>
