<?xml version="1.0" encoding="UTF-8" standalone="no"?>
<svg
   xmlns:dc="http://purl.org/dc/elements/1.1/"
   xmlns:cc="http://creativecommons.org/ns#"
   xmlns:rdf="http://www.w3.org/1999/02/22-rdf-syntax-ns#"
   xmlns:svg="http://www.w3.org/2000/svg"
   xmlns="http://www.w3.org/2000/svg"
   xmlns:sodipodi="http://sodipodi.sourceforge.net/DTD/sodipodi-0.dtd"
   xmlns:inkscape="http://www.inkscape.org/namespaces/inkscape"
   inkscape:version="1.0 (4035a4fb49, 2020-05-01)"
   sodipodi:docname="fork_left.svg"
   version="1.1"
   viewBox="0 0 20 20"
   height="20"
   width="20"
   data-name="WORKING ICONS"
   id="WORKING_ICONS">
  <metadata
     id="metadata11">
    <rdf:RDF>
      <cc:Work
         rdf:about="">
        <dc:format>image/svg+xml</dc:format>
        <dc:type
           rdf:resource="http://purl.org/dc/dcmitype/StillImage" />
      </cc:Work>
    </rdf:RDF>
  </metadata>
  <defs
     id="defs9" />
  <sodipodi:namedview
     inkscape:current-layer="WORKING_ICONS"
     inkscape:window-maximized="1"
     inkscape:window-y="22"
     inkscape:window-x="-8"
     inkscape:cy="12.194055"
     inkscape:cx="11.458416"
     inkscape:zoom="21.5"
     showgrid="false"
     id="namedview7"
     inkscape:window-height="1027"
     inkscape:window-width="1920"
     inkscape:pageshadow="2"
     inkscape:pageopacity="0"
     guidetolerance="10"
     gridtolerance="10"
     objecttolerance="10"
     borderopacity="1"
     bordercolor="#666666"
     pagecolor="#ffffff" />
  <title
     id="title2">direction</title>
  <path
     style="stroke-width:1.11852"
     id="path4"
     d="m 18.709557,6.1816503 a 0.34075743,0.34075743 0 0 1 0.257618,0.117523 l 0.72592,0.8373137 a 0.34066795,0.34066795 0 0 1 -0.03768,0.4834919 l -2.304646,1.9444924 a 6.0499684,6.0499684 0 0 0 -1.938464,4.8035897 l 0.0053,4.035277 a 0.33121645,0.33121645 0 0 1 -0.331239,0.331675 h -1.125757 a 0.33171978,0.33171978 0 0 1 -0.33134,-0.331328 l -6.49e-4,-3.888248 a 7.8199049,7.8199049 0 0 1 2.538415,-6.2929779 l 2.323169,-1.9604878 a 0.34086928,0.34086928 0 0 1 0.219453,-0.080332 m 0,-0.2237042 a 0.56226933,0.56226933 0 0 0 -0.363698,0.133104 L 16.022746,8.0515043 A 8.1110335,8.1110335 0 0 0 13.40553,14.532729 v 3.871 a 0.5550325,0.5550325 0 0 0 0.555033,0.554988 h 1.125757 a 0.55494302,0.55494302 0 0 0 0.554955,-0.555692 l -0.0053,-4.035255 A 5.8366664,5.8366664 0 0 1 17.498312,9.7325633 L 19.799568,7.790956 a 0.56434978,0.56434978 0 0 0 0.06247,-0.8010064 L 19.136161,6.1526359 A 0.56311941,0.56311941 0 0 0 18.709478,5.9579461 v 0 z M 8.9389061,5.5159849 H 6.7157896 A 0.39994956,0.39994956 0 0 1 6.2936822,4.9092767 L 7.7966948,1.6075816 A 0.43240904,0.43240904 0 0 0 7.0992522,1.1496256 L 2.155426e-5,6.6549861 7.0992746,12.119453 A 0.43240904,0.43240904 0 0 0 7.7966948,11.661486 L 6.2936822,8.3598023 A 0.39998312,0.39998312 0 0 1 6.7157896,7.753027 h 2.2356663 a 4.538757,4.538757 0 0 1 4.4615231,4.556004 v 6.094654 a 0.5550325,0.5550325 0 0 0 0.555044,0.555032 h 1.125758 a 0.55494302,0.55494302 0 0 0 0.554954,-0.555715 l -0.0022,-1.681327 h 0.0035 V 12.309031 A 6.7784499,6.7784499 0 0 0 8.9511986,5.5159849 l -0.012304,-0.00205"
     fill="#000000" />
</svg>
