<svg id="WORKING_ICONS" data-name="WORKING ICONS" xmlns="http://www.w3.org/2000/svg" width="20" height="20" viewBox="0 0 20 20">
  <title>direction</title>
  <path fill="#ffffff" d="M17.75607,6.59766a0.30466,0.30466,0,0,1,.23035.10507l0.649,0.74859a0.30457,0.30457,0,0,1-.03369.43226L16.54129,9.622a5.4089,5.4089,0,0,0-1.73306,4.29459l0.0047,3.60769a0.29613,0.29613,0,0,1-.29614.29654H13.51031a0.29657,0.29657,0,0,1-.29623-0.29622L13.2135,14.04838a6.99129,6.99129,0,0,1,2.26944-5.62616l2.077-1.75275a0.30461,0.30461,0,0,1,.19617-0.07182m0-.2a0.50264,0.50264,0,0,0-.32516.119l-2.077,1.75275A7.25157,7.25157,0,0,0,13.0141,14.0638v3.46082a0.49622,0.49622,0,0,0,.49622.49622h1.00647a0.49616,0.49616,0,0,0,.49615-0.49681l-0.0047-3.60767a5.2182,5.2182,0,0,1,1.665-4.14405l2.05737-1.73586A0.50455,0.50455,0,0,0,18.7865,7.3203l-0.649-.74859a0.50345,0.50345,0,0,0-.38147-0.17406h0ZM2.24393,6.57682a0.30457,0.30457,0,0,1,.19617.07182l2.074,1.75018A7.00218,7.00218,0,0,1,6.78592,14.043v3.46088A0.29651,0.29651,0,0,1,6.48975,17.8H5.48322a0.29613,0.29613,0,0,1-.29614-0.29655L5.19086,13.9146a5.42,5.42,0,0,0-1.73517-4.316L1.39832,7.86274a0.30457,0.30457,0,0,1-.03369-0.43226l0.649-.74859a0.30466,0.30466,0,0,1,.23035-0.10507m0-.2a0.50345,0.50345,0,0,0-.38147.17406l-0.649.74859a0.50455,0.50455,0,0,0,.05585.71613L3.32672,9.75146a5.2182,5.2182,0,0,1,1.665,4.14405l-0.0047,3.60767A0.49616,0.49616,0,0,0,5.48322,18H6.48975a0.49616,0.49616,0,0,0,.49615-0.49615V14.043A7.25157,7.25157,0,0,0,4.64606,8.24854l-2.077-1.75275a0.50264,0.50264,0,0,0-.32516-0.119h0Zm12.66891,1.966L10.00916,2,5.10547,8.34283a0.38659,0.38659,0,0,0,.40942.62354L8.46674,7.62262A0.35756,0.35756,0,0,1,9.00916,8v9.49652A0.50346,0.50346,0,0,0,9.51263,18h0.993a0.50346,0.50346,0,0,0,.50348-0.50348V8a0.35755,0.35755,0,0,1,.54242-0.37738l2.95184,1.34375A0.3866,0.3866,0,0,0,14.91284,8.34283Z"/>
</svg>
