<?xml version="1.0" encoding="UTF-8" standalone="no"?>
<svg
   xmlns:dc="http://purl.org/dc/elements/1.1/"
   xmlns:cc="http://creativecommons.org/ns#"
   xmlns:rdf="http://www.w3.org/1999/02/22-rdf-syntax-ns#"
   xmlns:svg="http://www.w3.org/2000/svg"
   xmlns="http://www.w3.org/2000/svg"
   xmlns:sodipodi="http://sodipodi.sourceforge.net/DTD/sodipodi-0.dtd"
   xmlns:inkscape="http://www.inkscape.org/namespaces/inkscape"
   inkscape:version="1.0 (4035a4fb49, 2020-05-01)"
   sodipodi:docname="fork_straight.svg"
   version="1.1"
   viewBox="0 0 20 20"
   height="20"
   width="20"
   data-name="WORKING ICONS"
   id="WORKING_ICONS">
  <metadata
     id="metadata11">
    <rdf:RDF>
      <cc:Work
         rdf:about="">
        <dc:format>image/svg+xml</dc:format>
        <dc:type
           rdf:resource="http://purl.org/dc/dcmitype/StillImage" />
      </cc:Work>
    </rdf:RDF>
  </metadata>
  <defs
     id="defs9" />
  <sodipodi:namedview
     inkscape:current-layer="WORKING_ICONS"
     inkscape:window-maximized="1"
     inkscape:window-y="22"
     inkscape:window-x="-8"
     inkscape:cy="20.732098"
     inkscape:cx="13.834961"
     inkscape:zoom="15.202796"
     showgrid="false"
     id="namedview7"
     inkscape:window-height="1027"
     inkscape:window-width="1920"
     inkscape:pageshadow="2"
     inkscape:pageopacity="0"
     guidetolerance="10"
     gridtolerance="10"
     objecttolerance="10"
     borderopacity="1"
     bordercolor="#666666"
     pagecolor="#ffffff" />
  <title
     id="title2">direction</title>
  <path
     style="stroke-width:1.12236"
     id="path4"
     d="m 18.705082,6.1696627 a 0.34193747,0.34193747 0 0 1 0.258535,0.1179261 l 0.72841,0.8401857 a 0.34183646,0.34183646 0 0 1 -0.03781,0.4851503 L 17.341664,9.564054 a 6.0707201,6.0707201 0 0 0 -1.945113,4.820065 l 0.0053,4.049119 a 0.33236376,0.33236376 0 0 1 -0.332375,0.332824 h -1.12963 a 0.3328576,0.3328576 0 0 1 -0.332501,-0.332465 l -6.51e-4,-3.901562 a 7.8467275,7.8467275 0 0 1 2.547123,-6.3145635 l 2.331137,-1.9672123 a 0.34188135,0.34188135 0 0 1 0.220173,-0.080608 m 0,-0.2244715 a 0.56414183,0.56414183 0 0 0 -0.364946,0.1335608 l -2.331137,1.9672123 a 8.1388548,8.1388548 0 0 0 -2.626148,6.5033892 v 3.884277 a 0.55693629,0.55693629 0 0 0 0.556936,0.556937 h 1.129619 a 0.55686895,0.55686895 0 0 0 0.556858,-0.557599 l -0.0053,-4.049096 a 5.8566865,5.8566865 0 0 1 1.868725,-4.651106 l 2.30913,-1.9482554 a 0.56628553,0.56628553 0 0 0 0.06273,-0.8037764 L 19.133183,6.1405375 A 0.56505094,0.56505094 0 0 0 18.705037,5.94518 v 0 z M 1.2949136,6.1462728 a 0.34183646,0.34183646 0 0 1 0.2201729,0.080608 l 2.3277697,1.9643275 a 7.85895,7.85895 0 0 1 2.5497945,6.3347887 v 3.884345 A 0.33279026,0.33279026 0 0 1 6.060242,18.742694 H 4.9305554 a 0.33236376,0.33236376 0 0 1 -0.332375,-0.332835 l 0.00424,-4.027973 A 6.0831783,6.0831783 0 0 0 2.6549417,9.537791 L 0.34583683,7.5895349 A 0.34183646,0.34183646 0 0 1 0.30802463,7.1043846 L 1.0364347,6.2641989 A 0.34193747,0.34193747 0 0 1 1.2949698,6.1462728 m 0,-0.2244716 A 0.56505094,0.56505094 0 0 0 0.86682403,6.1171588 l -0.7284101,0.8401857 a 0.56628553,0.56628553 0 0 0 0.062684,0.8037539 L 2.5101912,9.709354 a 5.8566865,5.8566865 0 0 1 1.8687255,4.651106 l -0.00528,4.049096 a 0.55686895,0.55686895 0 0 0 0.5569138,0.55761 H 6.060242 A 0.55686895,0.55686895 0 0 0 6.6170998,18.410308 V 14.525997 A 8.1388548,8.1388548 0 0 0 3.9909625,8.0225404 L 1.6598258,6.0553281 A 0.56414183,0.56414183 0 0 0 1.29488,5.9217676 v 0 z M 15.514017,8.1283563 10.010278,1.009444 4.5065848,8.1283675 A 0.43389223,0.43389223 0 0 0 4.9661005,8.8282024 L 8.2791318,7.3200344 A 0.40131019,0.40131019 0 0 1 8.887921,7.7435897 V 18.402081 a 0.56506216,0.56506216 0 0 0 0.5650732,0.565085 H 10.567495 A 0.56506216,0.56506216 0 0 0 11.13258,18.402081 V 7.7435897 a 0.40129896,0.40129896 0 0 1 0.608789,-0.4235553 l 3.31302,1.508168 a 0.43390345,0.43390345 0 0 0 0.459572,-0.6998349 z"
     fill="#000000" />
</svg>
