<svg id="WORKING_ICONS" data-name="WORKING ICONS" xmlns="http://www.w3.org/2000/svg" width="20" height="20" viewBox="0 0 20 20">
  <title>direction</title>
  <path fill="#ffffff" d="M17.00909,8v9.49652A0.50346,0.50346,0,0,1,16.50562,18h-0.993a0.50346,0.50346,0,0,1-.50348-0.50348V8a3.5,3.5,0,1,0-7,0v4H8a0.35757,0.35757,0,0,0,.54242.37738l2.95184-1.34375a0.3866,0.3866,0,0,1,.40942.62354L7,18,2.09625,11.65717a0.3866,0.3866,0,0,1,.40942-0.62354l2.95184,1.34375A0.3576,0.3576,0,0,0,6,12H6.00909V8A5.5,5.5,0,1,1,17.00909,8Z"/>
</svg>
