<svg id="WORKING_ICONS" data-name="WORKING ICONS" xmlns="http://www.w3.org/2000/svg" width="20" height="20" viewBox="0 0 20 20">
  <title>direction</title>
  <path fill="#ffffff" d="M9.82565,9.2v8.29515A0.3052,0.3052,0,0,1,9.52081,17.8H8.53052a0.3052,0.3052,0,0,1-.30484-0.30486V9.2h1.6m0.2-.2h-2v8.49515A0.50484,0.50484,0,0,0,8.53052,18h0.9903a0.50486,0.50486,0,0,0,.50485-0.50485V9h0ZM4.517,7.95947L7.46885,6.61572a0.35757,0.35757,0,0,1,.54242.37738h0.001V8.9585a6.60115,6.60115,0,0,0,3.38232,5.72021L15.70547,17.364a0.50277,0.50277,0,0,0,.69263-0.16089l0.52576-.84369a0.50285,0.50285,0,0,0-.16089-0.69275l-4.30485-2.6818a4.65641,4.65641,0,0,1-2.44824-3.957l0.00165-2.03607a0.35723,0.35723,0,0,1,.54224-0.376l2.95184,1.34375A0.38659,0.38659,0,0,0,13.915,7.33594L9.01127,0.9931,4.10758,7.33594A0.38659,0.38659,0,0,0,4.517,7.95947Z"/>
</svg>
