<svg id="WORKING_ICONS" data-name="WORKING ICONS" xmlns="http://www.w3.org/2000/svg" width="20" height="20" viewBox="0 0 20 20">
  <title>direction</title>
  <path fill="#ffffff" d="M11.79221,9.2v8.29515a0.3052,0.3052,0,0,1-.30484.30486h-0.9903a0.3052,0.3052,0,0,1-.30484-0.30486V9.2h1.6m0.2-.2h-2v8.49515A0.50484,0.50484,0,0,0,10.49707,18h0.9903a0.50486,0.50486,0,0,0,.50485-0.50485V9h0Zm3.91806-1.66406L11.00659,0.9931,6.10284,7.33594a0.38659,0.38659,0,0,0,.40942.62354L9.46411,6.61572a0.35723,0.35723,0,0,1,.54224.376L10.008,9.02783a4.65641,4.65641,0,0,1-2.44824,3.957L3.2549,15.66667a0.50285,0.50285,0,0,0-.16089.69275L3.61977,17.2031a0.50277,0.50277,0,0,0,.69263.16089l4.31083-2.68528A6.60115,6.60115,0,0,0,12.00555,8.9585V6.9931h0.001A0.35757,0.35757,0,0,1,12.549,6.61572l2.95184,1.34375A0.38659,0.38659,0,0,0,15.91028,7.33594Z"/>
</svg>
