<svg id="WORKING_ICONS" data-name="WORKING ICONS" xmlns="http://www.w3.org/2000/svg" width="20" height="20" viewBox="0 0 20 20">
  <title>direction</title>
  <path fill="#ffffff" d="M13.8,7.2V17.49921a0.30112,0.30112,0,0,1-.30078.3008H12.50079A0.30112,0.30112,0,0,1,12.2,17.49921V7.2h1.6M14,7H12V17.49921A0.50079,0.50079,0,0,0,12.50079,18h0.99841A0.50079,0.50079,0,0,0,14,17.49921V7h0Zm0.01831,3V8.01245a0.35757,0.35757,0,0,1,.54242-0.37738l2.95184,1.34375A0.38659,0.38659,0,0,0,17.922,8.35529L13,2.0083l-4.88544,6.347a0.38659,0.38659,0,0,0,.40942.62354l2.95184-1.34375a0.3576,0.3576,0,0,1,.54248.37738v1.99878A4.05782,4.05782,0,0,1,7.94507,14H2.49622A0.49622,0.49622,0,0,0,2,14.49622v1.00647a0.49614,0.49614,0,0,0,.49683.49615L4,15.99689V16H7.94507a6.06019,6.06019,0,0,0,6.07324-5.989L14.02014,10"/>
</svg>
