<svg id="WORKING_ICONS" data-name="WORKING ICONS" xmlns="http://www.w3.org/2000/svg" width="20" height="20" viewBox="0 0 20 20">
  <title>direction</title>
  <path fill="#ffffff" d="M7.8,7.2V17.50252A0.2978,0.2978,0,0,1,7.50253,17.8H6.49747A0.2978,0.2978,0,0,1,6.2,17.50252V7.2H7.8M8,7H6V17.50252A0.49747,0.49747,0,0,0,6.49747,18H7.50253A0.49747,0.49747,0,0,0,8,17.50252V7H8ZM7.98169,10V8.01245a0.3576,0.3576,0,0,1,.54248-0.37738L11.476,8.97882a0.38659,0.38659,0,0,0,.40942-0.62354L7,2.0083l-4.922,6.347a0.38659,0.38659,0,0,0,.40942.62354L5.43927,7.63507a0.35757,0.35757,0,0,1,.54242.37738V10H5.97986l0.00183,0.011A6.06019,6.06019,0,0,0,12.05493,16H16V15.99689l1.50317,0.002A0.49614,0.49614,0,0,0,18,15.50269V14.49622A0.49622,0.49622,0,0,0,17.50378,14H12.05493a4.05782,4.05782,0,0,1-4.07324-3.98877V10Z"/>
</svg>
