<svg id="WORKING_ICONS" data-name="WORKING ICONS" xmlns="http://www.w3.org/2000/svg" width="20" height="20" viewBox="0 0 20 20">
  <title>direction</title>
  <path fill="#ffffff" d="M14.9859,14.043v3.46082A0.49621,0.49621,0,0,1,14.48974,18H13.48321a0.49614,0.49614,0,0,1-.49615-0.49683l0.0047-3.60767a5.21819,5.21819,0,0,0-1.665-4.144L8.87854,7.68585a0.35758,0.35758,0,0,0-.6405.16266l-0.91821,3.1106A0.38663,0.38663,0,0,1,6.58044,10.86L5,3l8.00476,0.44965a0.38658,0.38658,0,0,1,.20294.71777L10.25878,5.51758a0.3576,0.3576,0,0,0-.07019.6571l2.45746,2.07385A7.25158,7.25158,0,0,1,14.9859,14.043Z"/>
</svg>
