<?xml version="1.0" encoding="UTF-8" standalone="no"?>
<svg
   xmlns:dc="http://purl.org/dc/elements/1.1/"
   xmlns:cc="http://creativecommons.org/ns#"
   xmlns:rdf="http://www.w3.org/1999/02/22-rdf-syntax-ns#"
   xmlns:svg="http://www.w3.org/2000/svg"
   xmlns="http://www.w3.org/2000/svg"
   xmlns:sodipodi="http://sodipodi.sourceforge.net/DTD/sodipodi-0.dtd"
   xmlns:inkscape="http://www.inkscape.org/namespaces/inkscape"
   inkscape:version="1.0 (4035a4fb49, 2020-05-01)"
   sodipodi:docname="new_name_sharp_right.svg"
   version="1.1"
   viewBox="0 0 20 20"
   height="20"
   width="20"
   data-name="WORKING ICONS"
   id="WORKING_ICONS">
  <metadata
     id="metadata11">
    <rdf:RDF>
      <cc:Work
         rdf:about="">
        <dc:format>image/svg+xml</dc:format>
        <dc:type
           rdf:resource="http://purl.org/dc/dcmitype/StillImage" />
      </cc:Work>
    </rdf:RDF>
  </metadata>
  <defs
     id="defs9" />
  <sodipodi:namedview
     inkscape:current-layer="WORKING_ICONS"
     inkscape:window-maximized="1"
     inkscape:window-y="22"
     inkscape:window-x="-8"
     inkscape:cy="13.406497"
     inkscape:cx="13.365628"
     inkscape:zoom="21.5"
     showgrid="false"
     id="namedview7"
     inkscape:window-height="1027"
     inkscape:window-width="1920"
     inkscape:pageshadow="2"
     inkscape:pageopacity="0"
     guidetolerance="10"
     gridtolerance="10"
     objecttolerance="10"
     borderopacity="1"
     bordercolor="#666666"
     pagecolor="#ffffff" />
  <title
     id="title2">direction</title>
  <path
     style="stroke-width:1.33234"
     id="path4"
     d="M 0.6817139,19.999998 A 0.6632279,0.6632279 0 0 1 0.018486,19.336744 L 0.0191122,2.7185536 a 2.8012149,2.8012149 0 0 1 0.7422892,-1.94582289 2.5705594,2.5705594 0 0 1 1.910689,-0.7579043 l 0.3519522,-0.00266 A 5.9507047,5.9507047 0 0 1 7.53371,1.6659527 l 7.184136,6.1408968 0.005,-0.0059 a 0.47640652,0.47640652 0 0 0 0.850036,-0.229243 l 1.162471,-4.1618724 a 0.51509781,0.51509781 0 0 1 0.986894,0.1175128 L 19.981514,13.967554 9.308793,13.525096 A 0.51505784,0.51505784 0 0 1 9.024417,12.572842 l 3.902131,-1.856369 A 0.46522814,0.46522814 0 0 0 13.036494,9.8747375 L 5.8481205,3.7288707 A 3.4209018,3.4209018 0 0 0 3.0559256,2.6763183 l -0.3727767,0.00846 V 19.336824 A 0.6632279,0.6632279 0 0 1 2.019921,19.999998 Z"
     fill="#000000" />
</svg>
