<?xml version="1.0" encoding="UTF-8" standalone="no"?>
<svg
   xmlns:dc="http://purl.org/dc/elements/1.1/"
   xmlns:cc="http://creativecommons.org/ns#"
   xmlns:rdf="http://www.w3.org/1999/02/22-rdf-syntax-ns#"
   xmlns:svg="http://www.w3.org/2000/svg"
   xmlns="http://www.w3.org/2000/svg"
   xmlns:sodipodi="http://sodipodi.sourceforge.net/DTD/sodipodi-0.dtd"
   xmlns:inkscape="http://www.inkscape.org/namespaces/inkscape"
   inkscape:version="1.0 (4035a4fb49, 2020-05-01)"
   sodipodi:docname="new_name_slight_left.svg"
   version="1.1"
   viewBox="0 0 20 20"
   height="20"
   width="20"
   data-name="WORKING ICONS"
   id="WORKING_ICONS">
  <metadata
     id="metadata11">
    <rdf:RDF>
      <cc:Work
         rdf:about="">
        <dc:format>image/svg+xml</dc:format>
        <dc:type
           rdf:resource="http://purl.org/dc/dcmitype/StillImage" />
      </cc:Work>
    </rdf:RDF>
  </metadata>
  <defs
     id="defs9" />
  <sodipodi:namedview
     inkscape:current-layer="WORKING_ICONS"
     inkscape:window-maximized="1"
     inkscape:window-y="22"
     inkscape:window-x="-8"
     inkscape:cy="14.196627"
     inkscape:cx="9.5375818"
     inkscape:zoom="21.5"
     showgrid="false"
     id="namedview7"
     inkscape:window-height="1027"
     inkscape:window-width="1920"
     inkscape:pageshadow="2"
     inkscape:pageopacity="0"
     guidetolerance="10"
     gridtolerance="10"
     objecttolerance="10"
     borderopacity="1"
     bordercolor="#666666"
     pagecolor="#ffffff" />
  <title
     id="title2">direction</title>
  <path
     style="stroke-width:1.33333"
     id="path4"
     d="m 16.648074,14.724 v 4.614427 A 0.66161333,0.66161333 0 0 1 15.986528,20 h -1.34204 a 0.66152,0.66152 0 0 1 -0.661534,-0.66244 l 0.0063,-4.810227 A 6.9575867,6.9575867 0 0 0 11.769221,9.002 L 8.5049277,6.2478 A 0.47677333,0.47677333 0 0 0 7.6509274,6.46468 l -1.22428,4.147467 A 0.51550667,0.51550667 0 0 1 5.440794,10.48 L 3.3335407,0 14.006554,0.5995333 A 0.51544,0.51544 0 0 1 14.277141,1.55656 l -3.931893,1.8002133 a 0.4768,0.4768 0 0 0 -0.09359,0.8761334 L 13.528274,6.99804 a 9.6687733,9.6687733 0 0 1 3.1198,7.72596 z"
     fill="#000000" />
</svg>
