<svg id="WORKING_ICONS" data-name="WORKING ICONS" xmlns="http://www.w3.org/2000/svg" width="20" height="20" viewBox="0 0 20 20">
  <title>direction</title>
  <path fill="#ffffff" d="M3.49789,17.99542a0.49779,0.49779,0,0,1-.49779-0.49781L3.00057,5.02472A2.10247,2.10247,0,0,1,3.5577,3.56427a1.92935,1.92935,0,0,1,1.43408-.56885l0.26416-.002A4.46634,4.46634,0,0,1,8.6407,4.23468L14.0328,8.84377l0.00378-.00446a0.35757,0.35757,0,0,0,.638-0.17206l0.8725-3.12372a0.38661,0.38661,0,0,1,.74072.0882l1.69568,7.836L9.973,13.13564a0.38658,0.38658,0,0,1-.21344-0.71472l2.92877-1.39331a0.34918,0.34918,0,0,0,.08252-0.63177L7.37557,5.783a2.56758,2.56758,0,0,0-2.0957-.79l-0.27979.00635v12.4983a0.49779,0.49779,0,0,1-.49779.49779H3.49789Z"/>
</svg>
