<svg id="WORKING_ICONS" data-name="WORKING ICONS" xmlns="http://www.w3.org/2000/svg" width="20" height="20" viewBox="0 0 20 20">
  <title>direction</title>
  <path fill="#ffffff" d="M9.98877,7.98169A4.05782,4.05782,0,0,0,6,12.05493v5.44885A0.49622,0.49622,0,0,1,5.50378,18H4.49731a0.49614,0.49614,0,0,1-.49615-0.49683L4.00311,16H4V12.05493A6.06019,6.06019,0,0,1,9.989,5.98169L10,5.97986V5.98169h1.98755a0.35757,0.35757,0,0,0,.37738-0.54242L11.02118,2.48743A0.38659,0.38659,0,0,1,11.64471,2.078L17.9917,7l-6.347,4.88544a0.38659,0.38659,0,0,1-.62354-0.40942l1.34375-2.95184a0.3576,0.3576,0,0,0-.37738-0.54248H9.98877Z"/>
</svg>
