<svg id="WORKING_ICONS" data-name="WORKING ICONS" xmlns="http://www.w3.org/2000/svg" width="20" height="20" viewBox="0 0 20 20">
  <title>direction</title>
  <path fill="#ffffff" d="M8.5029,2.2A0.29744,0.29744,0,0,1,8.8,2.49712V17.50288A0.29744,0.29744,0,0,1,8.5029,17.8H7.4971A0.29744,0.29744,0,0,1,7.2,17.50288V2.49712A0.29744,0.29744,0,0,1,7.4971,2.2H8.5029m0-.2H7.4971A0.49711,0.49711,0,0,0,7,2.49712V17.50288A0.49711,0.49711,0,0,0,7.4971,18H8.5029A0.49711,0.49711,0,0,0,9,17.50288V2.49712A0.49711,0.49711,0,0,0,8.5029,2h0ZM7.0141,14.043v3.46082A0.49621,0.49621,0,0,0,7.51025,18H8.51678a0.49614,0.49614,0,0,0,.49615-0.49683l-0.0047-3.60767a5.21819,5.21819,0,0,1,1.665-4.144l2.44818-2.06561a0.35758,0.35758,0,0,1,.6405.16266l0.91821,3.1106A0.38663,0.38663,0,0,0,15.41956,10.86L17,3l-8.00476.44965a0.38658,0.38658,0,0,0-.20294.71777l2.94891,1.35016a0.3576,0.3576,0,0,1,.07019.6571L9.35394,8.24854A7.25157,7.25157,0,0,0,7.0141,14.043Z"/>
</svg>
