<svg id="WORKING_ICONS" data-name="WORKING ICONS" xmlns="http://www.w3.org/2000/svg" width="20" height="20" viewBox="0 0 20 20">
  <title>direction</title>
  <path fill="#ffffff" d="M14.5029,2.2A0.29744,0.29744,0,0,1,14.8,2.49712V17.50288A0.29744,0.29744,0,0,1,14.5029,17.8H13.4971A0.29744,0.29744,0,0,1,13.2,17.50288V2.49712A0.29744,0.29744,0,0,1,13.4971,2.2h1.0058m0-.2H13.4971A0.49711,0.49711,0,0,0,13,2.49712V17.50288A0.49711,0.49711,0,0,0,13.4971,18h1.0058A0.49711,0.49711,0,0,0,15,17.50288V2.49712A0.49711,0.49711,0,0,0,14.5029,2h0ZM12.64606,8.24854L10.1886,6.17468a0.3576,0.3576,0,0,1,.07019-0.6571L13.2077,4.16742a0.38658,0.38658,0,0,0-.20294-0.71777L5,3l1.58044,7.86a0.38663,0.38663,0,0,0,.73938.09912L8.238,7.84851a0.35758,0.35758,0,0,1,.6405-0.16266l2.44818,2.06561a5.21819,5.21819,0,0,1,1.665,4.144l-0.0047,3.60767A0.49614,0.49614,0,0,0,13.48322,18h1.00653a0.49621,0.49621,0,0,0,.49615-0.49622V14.043A7.25157,7.25157,0,0,0,12.64606,8.24854Z"/>
</svg>
