<svg id="WORKING_ICONS" data-name="WORKING ICONS" xmlns="http://www.w3.org/2000/svg" width="20" height="20" viewBox="0 0 20 20">
  <title>direction</title>
  <path fill="#ffffff" d="M6.5029,2.2A0.29744,0.29744,0,0,1,6.8,2.49712V17.50288A0.29744,0.29744,0,0,1,6.5029,17.8H5.4971A0.29744,0.29744,0,0,1,5.2,17.50288V2.49712A0.29744,0.29744,0,0,1,5.4971,2.2H6.5029m0-.2H5.4971A0.49711,0.49711,0,0,0,5,2.49712V17.50288A0.49711,0.49711,0,0,0,5.4971,18H6.5029A0.49711,0.49711,0,0,0,7,17.50288V2.49712A0.49711,0.49711,0,0,0,6.5029,2h0Zm4.5054,5.98169h1.98755a0.3576,0.3576,0,0,1,.37738.54248L12.02948,11.476a0.38659,0.38659,0,0,0,.62354.40942L19,7,12.653,2.078a0.38659,0.38659,0,0,0-.62354.40942l1.34375,2.95184a0.35757,0.35757,0,0,1-.37738.54242H11.0083V5.97986l-0.011.00183a6.06019,6.06019,0,0,0-5.989,6.07324V16H5.01141l-0.002,1.50317A0.49614,0.49614,0,0,0,5.50562,18H6.51208a0.49622,0.49622,0,0,0,.49622-0.49622V12.05493a4.05782,4.05782,0,0,1,3.98877-4.07324H11.0083Z"/>
</svg>
