<svg id="WORKING_ICONS" data-name="WORKING ICONS" xmlns="http://www.w3.org/2000/svg" width="20" height="20" viewBox="0 0 20 20">
  <title>direction</title>
  <path fill="#ffffff" d="M14.5029,2.2A0.29744,0.29744,0,0,1,14.8,2.49712V17.50288A0.29744,0.29744,0,0,1,14.5029,17.8H13.4971A0.29744,0.29744,0,0,1,13.2,17.50288V2.49712A0.29744,0.29744,0,0,1,13.4971,2.2h1.0058m0-.2H13.4971A0.49711,0.49711,0,0,0,13,2.49712V17.50288A0.49711,0.49711,0,0,0,13.4971,18h1.0058A0.49711,0.49711,0,0,0,15,17.50288V2.49712A0.49711,0.49711,0,0,0,14.5029,2h0ZM9.00078,5.98169H7.01323a0.35757,0.35757,0,0,1-.37738-0.54242L7.9796,2.48743A0.38659,0.38659,0,0,0,7.35606,2.078L1.00908,7l6.347,4.88544A0.38659,0.38659,0,0,0,7.9796,11.476L6.63585,8.52417a0.3576,0.3576,0,0,1,.37738-0.54248H9.012a4.05782,4.05782,0,0,1,3.98877,4.07324v5.44885A0.49622,0.49622,0,0,0,13.497,18h1.00647a0.49614,0.49614,0,0,0,.49615-0.49683L14.99766,16h0.00311V12.05493a6.06019,6.06019,0,0,0-5.989-6.07324l-0.011-.00183"/>
</svg>
