<?xml version="1.0" encoding="UTF-8" standalone="no"?>
<svg
   xmlns:dc="http://purl.org/dc/elements/1.1/"
   xmlns:cc="http://creativecommons.org/ns#"
   xmlns:rdf="http://www.w3.org/1999/02/22-rdf-syntax-ns#"
   xmlns:svg="http://www.w3.org/2000/svg"
   xmlns="http://www.w3.org/2000/svg"
   xmlns:sodipodi="http://sodipodi.sourceforge.net/DTD/sodipodi-0.dtd"
   xmlns:inkscape="http://www.inkscape.org/namespaces/inkscape"
   inkscape:version="1.0 (4035a4fb49, 2020-05-01)"
   sodipodi:docname="off_ramp_left.svg"
   version="1.1"
   viewBox="0 0 20 20"
   height="20"
   width="20"
   data-name="WORKING ICONS"
   id="WORKING_ICONS">
  <metadata
     id="metadata11">
    <rdf:RDF>
      <cc:Work
         rdf:about="">
        <dc:format>image/svg+xml</dc:format>
        <dc:type
           rdf:resource="http://purl.org/dc/dcmitype/StillImage" />
      </cc:Work>
    </rdf:RDF>
  </metadata>
  <defs
     id="defs9" />
  <sodipodi:namedview
     inkscape:current-layer="WORKING_ICONS"
     inkscape:window-maximized="1"
     inkscape:window-y="22"
     inkscape:window-x="-8"
     inkscape:cy="19.152307"
     inkscape:cx="15.60741"
     inkscape:zoom="15.202796"
     showgrid="false"
     id="namedview7"
     inkscape:window-height="1027"
     inkscape:window-width="1920"
     inkscape:pageshadow="2"
     inkscape:pageopacity="0"
     guidetolerance="10"
     gridtolerance="10"
     objecttolerance="10"
     borderopacity="1"
     bordercolor="#666666"
     pagecolor="#ffffff" />
  <title
     id="title2">direction</title>
  <path
     style="stroke-width:1.24853"
     id="path4"
     d="m 18.112863,0.27325637 a 0.37136219,0.37136219 0 0 1 0.370938,0.3709627 V 19.379332 a 0.37136219,0.37136219 0 0 1 -0.370938,0.370963 H 16.857094 A 0.37136219,0.37136219 0 0 1 16.486156,19.379332 V 0.64421907 a 0.37136219,0.37136219 0 0 1 0.370938,-0.3709627 h 1.255769 m 0,-0.2497056 H 16.857094 A 0.6206558,0.6206558 0 0 0 16.23645,0.64421907 V 19.379332 A 0.6206558,0.6206558 0 0 0 16.857094,20 h 1.255769 a 0.6206558,0.6206558 0 0 0 0.620644,-0.620668 V 0.64421907 A 0.6206558,0.6206558 0 0 0 18.112863,0.02355077 Z M 11.243312,4.9948026 H 8.7617996 A 0.44643619,0.44643619 0 0 1 8.2906301,4.317576 L 9.9683397,0.63212087 A 0.48266847,0.48266847 0 0 0 9.1898325,0.12093597 L 1.2654497,6.2661912 9.1898575,12.3658 A 0.48266847,0.48266847 0 0 0 9.9683397,11.854603 L 8.2906301,8.1691599 A 0.44647364,0.44647364 0 0 1 8.7617996,7.4918588 H 11.25732 a 5.0663022,5.0663022 0 0 1 4.980092,5.0855542 v 6.803043 A 0.61954461,0.61954461 0 0 0 16.856969,20 h 1.256606 a 0.61944472,0.61944472 0 0 0 0.619457,-0.620306 l -0.0024,-1.87675 h 0.0039 V 12.577413 A 7.5663174,7.5663174 0 0 0 11.257033,4.9948026 l -0.01373,-0.00228"
     fill="#000000" />
</svg>
