<?xml version="1.0" encoding="UTF-8" standalone="no"?>
<svg
   xmlns:dc="http://purl.org/dc/elements/1.1/"
   xmlns:cc="http://creativecommons.org/ns#"
   xmlns:rdf="http://www.w3.org/1999/02/22-rdf-syntax-ns#"
   xmlns:svg="http://www.w3.org/2000/svg"
   xmlns="http://www.w3.org/2000/svg"
   xmlns:sodipodi="http://sodipodi.sourceforge.net/DTD/sodipodi-0.dtd"
   xmlns:inkscape="http://www.inkscape.org/namespaces/inkscape"
   inkscape:version="1.0 (4035a4fb49, 2020-05-01)"
   sodipodi:docname="off_ramp_right.svg"
   version="1.1"
   viewBox="0 0 20 20"
   height="20"
   width="20"
   data-name="WORKING ICONS"
   id="WORKING_ICONS">
  <metadata
     id="metadata11">
    <rdf:RDF>
      <cc:Work
         rdf:about="">
        <dc:format>image/svg+xml</dc:format>
        <dc:type
           rdf:resource="http://purl.org/dc/dcmitype/StillImage" />
      </cc:Work>
    </rdf:RDF>
  </metadata>
  <defs
     id="defs9" />
  <sodipodi:namedview
     inkscape:current-layer="WORKING_ICONS"
     inkscape:window-maximized="1"
     inkscape:window-y="22"
     inkscape:window-x="-8"
     inkscape:cy="12.447827"
     inkscape:cx="10.887302"
     inkscape:zoom="15.202796"
     showgrid="false"
     id="namedview7"
     inkscape:window-height="1027"
     inkscape:window-width="1920"
     inkscape:pageshadow="2"
     inkscape:pageopacity="0"
     guidetolerance="10"
     gridtolerance="10"
     objecttolerance="10"
     borderopacity="1"
     bordercolor="#666666"
     pagecolor="#ffffff" />
  <title
     id="title2">direction</title>
  <path
     style="stroke-width:1.24853"
     id="path4"
     d="m 3.1367143,0.27325183 a 0.37136229,0.37136229 0 0 1 0.3709378,0.3709628 V 19.379332 A 0.37136229,0.37136229 0 0 1 3.1367143,19.750295 H 1.8809445 A 0.37136229,0.37136229 0 0 1 1.5100067,19.379332 V 0.64421463 a 0.37136229,0.37136229 0 0 1 0.3709378,-0.3709628 h 1.2557698 m 0,-0.2497057 H 1.8809445 A 0.62065595,0.62065595 0 0 0 1.260301,0.64421463 V 19.379332 A 0.62065595,0.62065595 0 0 0 1.8809445,20 H 3.1367143 A 0.62065595,0.62065595 0 0 0 3.7573578,19.379332 V 0.64421463 A 0.62065595,0.62065595 0 0 0 3.1367143,0.02354613 Z M 8.761834,7.491856 h 2.481513 a 0.44647376,0.44647376 0 0 1 0.471169,0.6773012 l -1.67771,3.6854438 a 0.48266859,0.48266859 0 0 0 0.778508,0.511173 l 7.924385,-6.0995859 -7.92441,-6.14525677 a 0.48266859,0.48266859 0 0 0 -0.778508,0.5111725 l 1.67771,3.68545607 A 0.4464363,0.4464363 0 0 1 11.243322,4.9947867 H 8.761834 v -0.00227 l -0.01373,0.00228 A 7.5663193,7.5663193 0 0 0 1.2706678,12.577409 v 4.925532 h 0.00388 l -0.0025,1.87675 A 0.61944488,0.61944488 0 0 0 1.89158,19.999997 H 3.1481758 A 0.61954476,0.61954476 0 0 0 3.7677206,19.380456 V 12.577412 A 5.0663035,5.0663035 0 0 1 8.747813,7.491856 Z"
     fill="#000000" />
</svg>
