<svg id="WORKING_ICONS" data-name="WORKING ICONS" xmlns="http://www.w3.org/2000/svg" width="20" height="20" viewBox="0 0 20 20">
  <title>direction</title>
  <path fill="#ffffff" d="M12.9859,14.043v3.46082A0.49621,0.49621,0,0,1,12.48975,18H11.48322a0.49614,0.49614,0,0,1-.49615-0.49683l0.0047-3.60767a5.21819,5.21819,0,0,0-1.665-4.144L6.87854,7.68585a0.35758,0.35758,0,0,0-.6405.16266l-0.91821,3.1106A0.38663,0.38663,0,0,1,4.58044,10.86L3,3l8.00476,0.44965a0.38658,0.38658,0,0,1,.20294.71777L8.25879,5.51758a0.3576,0.3576,0,0,0-.07019.6571l2.45746,2.07385A7.25157,7.25157,0,0,1,12.9859,14.043Z"/>
</svg>
