<svg id="WORKING_ICONS" data-name="WORKING ICONS" xmlns="http://www.w3.org/2000/svg" width="20" height="20" viewBox="0 0 20 20">
  <title>direction</title>
  <path fill="#ffffff" d="M9.00078,5.97986l0.011,0.00183a6.06019,6.06019,0,0,1,5.989,6.07324V16H14.99766l0.002,1.50317A0.49614,0.49614,0,0,1,14.50346,18H13.497a0.49622,0.49622,0,0,1-.49622-0.49622V12.05493A4.05782,4.05782,0,0,0,9.012,7.98169H7.01323a0.3576,0.3576,0,0,0-.37738.54248L7.9796,11.476a0.38659,0.38659,0,0,1-.62354.40942L1.00908,7l6.347-4.922a0.38659,0.38659,0,0,1,.62354.40942L6.63585,5.43927a0.35757,0.35757,0,0,0,.37738.54242H9.00078"/>
</svg>
