<svg id="WORKING_ICONS" data-name="WORKING ICONS" xmlns="http://www.w3.org/2000/svg" width="20" height="20" viewBox="0 0 20 20">
  <title>direction</title>
  <path fill="#ffffff" d="M15.49771,18a0.49779,0.49779,0,0,1-.49779-0.49779V5.00391l-0.27979-.00635a2.56758,2.56758,0,0,0-2.0957.79L7.22917,10.40041a0.34918,0.34918,0,0,0,.08252.63177l2.92877,1.39331a0.38658,0.38658,0,0,1-.21344.71472l-8.0105.33209,1.69568-7.836a0.38661,0.38661,0,0,1,.74072-0.0882l0.8725,3.12372a0.35757,0.35757,0,0,0,.638.17206L5.9672,8.84835,11.3593,4.23926A4.46634,4.46634,0,0,1,14.74406,2.998L15.00822,3a1.92935,1.92935,0,0,1,1.43408.56885,2.10247,2.10247,0,0,1,.55713,1.46045L16.9999,17.50219A0.49779,0.49779,0,0,1,16.50211,18h-1.0044Z"/>
</svg>
