<svg id="WORKING_ICONS" data-name="WORKING ICONS" xmlns="http://www.w3.org/2000/svg" width="20" height="20" viewBox="0 0 20 20">
  <title>direction</title>
  <path fill="#ffffff" d="M10.99707,7.98169A4.05782,4.05782,0,0,0,7.0083,12.05493v5.44885A0.49622,0.49622,0,0,1,6.51208,18H5.50562a0.49614,0.49614,0,0,1-.49615-0.49683L5.01141,16H5.0083V12.05493a6.06019,6.06019,0,0,1,5.989-6.07324l0.011-.00183V5.98169h1.98755a0.35757,0.35757,0,0,0,.37738-0.54242L12.02948,2.48743A0.38659,0.38659,0,0,1,12.653,2.078L19,7l-6.347,4.88544a0.38659,0.38659,0,0,1-.62354-0.40942l1.34375-2.95184a0.3576,0.3576,0,0,0-.37738-0.54248H10.99707Z"/>
</svg>
