<?xml version="1.0" encoding="UTF-8" standalone="no"?>
<svg
   xmlns:dc="http://purl.org/dc/elements/1.1/"
   xmlns:cc="http://creativecommons.org/ns#"
   xmlns:rdf="http://www.w3.org/1999/02/22-rdf-syntax-ns#"
   xmlns:svg="http://www.w3.org/2000/svg"
   xmlns="http://www.w3.org/2000/svg"
   xmlns:sodipodi="http://sodipodi.sourceforge.net/DTD/sodipodi-0.dtd"
   xmlns:inkscape="http://www.inkscape.org/namespaces/inkscape"
   inkscape:version="1.0 (4035a4fb49, 2020-05-01)"
   sodipodi:docname="on_ramp_slight_right.svg"
   version="1.1"
   viewBox="0 0 20 20"
   height="20"
   width="20"
   data-name="WORKING ICONS"
   id="WORKING_ICONS">
  <metadata
     id="metadata11">
    <rdf:RDF>
      <cc:Work
         rdf:about="">
        <dc:format>image/svg+xml</dc:format>
        <dc:type
           rdf:resource="http://purl.org/dc/dcmitype/StillImage" />
      </cc:Work>
    </rdf:RDF>
  </metadata>
  <defs
     id="defs9" />
  <sodipodi:namedview
     inkscape:current-layer="WORKING_ICONS"
     inkscape:window-maximized="1"
     inkscape:window-y="22"
     inkscape:window-x="-8"
     inkscape:cy="10.586548"
     inkscape:cx="8.6793365"
     inkscape:zoom="21.5"
     showgrid="false"
     id="namedview7"
     inkscape:window-height="1027"
     inkscape:window-width="1920"
     inkscape:pageshadow="2"
     inkscape:pageopacity="0"
     guidetolerance="10"
     gridtolerance="10"
     objecttolerance="10"
     borderopacity="1"
     bordercolor="#666666"
     pagecolor="#ffffff" />
  <title
     id="title2">direction</title>
  <path
     style="stroke-width:1.33333"
     id="path4"
     d="M 6.4717127,6.9980533 9.7483257,4.2329067 A 0.4768,0.4768 0 0 0 9.6547397,3.3567733 L 5.7228595,1.55656 A 0.51544,0.51544 0 0 1 5.9934462,0.5995333 L 16.66646,0 14.559206,10.48 a 0.51550667,0.51550667 0 0 1 -0.98584,0.13216 l -1.22424,-4.14748 a 0.47677333,0.47677333 0 0 0 -0.854,-0.21688 L 8.2308327,9.001947 A 6.9575867,6.9575867 0 0 0 6.0108328,14.52728 l 0.00627,4.810227 A 0.66152,0.66152 0 0 1 5.3554995,20 h -1.34204 A 0.66161333,0.66161333 0 0 1 3.3519262,19.338373 V 14.724 A 9.66876,9.66876 0 0 1 6.4717127,6.9980533 Z"
     fill="#000000" />
</svg>
