<?xml version="1.0" encoding="UTF-8" standalone="no"?>
<svg
   xmlns:dc="http://purl.org/dc/elements/1.1/"
   xmlns:cc="http://creativecommons.org/ns#"
   xmlns:rdf="http://www.w3.org/1999/02/22-rdf-syntax-ns#"
   xmlns:svg="http://www.w3.org/2000/svg"
   xmlns="http://www.w3.org/2000/svg"
   xmlns:sodipodi="http://sodipodi.sourceforge.net/DTD/sodipodi-0.dtd"
   xmlns:inkscape="http://www.inkscape.org/namespaces/inkscape"
   inkscape:version="1.0 (4035a4fb49, 2020-05-01)"
   sodipodi:docname="on_ramp_right.svg"
   version="1.1"
   viewBox="0 0 20 20"
   height="20"
   width="20"
   data-name="WORKING ICONS"
   id="WORKING_ICONS">
  <metadata
     id="metadata11">
    <rdf:RDF>
      <cc:Work
         rdf:about="">
        <dc:format>image/svg+xml</dc:format>
        <dc:type
           rdf:resource="http://purl.org/dc/dcmitype/StillImage" />
      </cc:Work>
    </rdf:RDF>
  </metadata>
  <defs
     id="defs9" />
  <sodipodi:namedview
     inkscape:current-layer="WORKING_ICONS"
     inkscape:window-maximized="1"
     inkscape:window-y="22"
     inkscape:window-x="-8"
     inkscape:cy="13.079546"
     inkscape:cx="10.886253"
     inkscape:zoom="21.5"
     showgrid="false"
     id="namedview7"
     inkscape:window-height="1027"
     inkscape:window-width="1920"
     inkscape:pageshadow="2"
     inkscape:pageopacity="0"
     guidetolerance="10"
     gridtolerance="10"
     objecttolerance="10"
     borderopacity="1"
     bordercolor="#666666"
     pagecolor="#ffffff" />
  <title
     id="title2">direction</title>
  <path
     style="stroke-width:1.24853"
     id="path4"
     d="m 8.7426396,7.491839 a 5.0663101,5.0663101 0 0 0 -4.9800992,5.085563 v 6.803053 A 0.61954557,0.61954557 0 0 1 3.1429948,20 H 1.8863993 A 0.61944568,0.61944568 0 0 1 1.2669411,19.379693 l 0.00242,-1.876753 h -0.00388 V 12.577402 A 7.5663291,7.5663291 0 0 1 8.7429266,4.994779 l 0.01373,-0.00228 v 0.00228 h 2.4815204 a 0.44643688,0.44643688 0 0 0 0.47117,-0.6772277 L 10.031635,0.63209051 a 0.48266922,0.48266922 0 0 1 0.778483,-0.5111857 l 7.92442,6.14526479 -7.92442,6.0996184 A 0.48266922,0.48266922 0 0 1 10.03161,11.854615 L 11.709322,8.1691537 A 0.44647433,0.44647433 0 0 0 11.238152,7.4918515 H 8.7426396 Z"
     fill="#000000" />
</svg>
