<?xml version="1.0" encoding="UTF-8" standalone="no"?>
<svg
   xmlns:dc="http://purl.org/dc/elements/1.1/"
   xmlns:cc="http://creativecommons.org/ns#"
   xmlns:rdf="http://www.w3.org/1999/02/22-rdf-syntax-ns#"
   xmlns:svg="http://www.w3.org/2000/svg"
   xmlns="http://www.w3.org/2000/svg"
   xmlns:sodipodi="http://sodipodi.sourceforge.net/DTD/sodipodi-0.dtd"
   xmlns:inkscape="http://www.inkscape.org/namespaces/inkscape"
   inkscape:version="1.0 (4035a4fb49, 2020-05-01)"
   sodipodi:docname="rotary_left.svg"
   version="1.1"
   viewBox="0 0 20 20"
   height="20"
   width="20"
   data-name="WORKING ICONS"
   id="WORKING_ICONS">
  <metadata
     id="metadata11">
    <rdf:RDF>
      <cc:Work
         rdf:about="">
        <dc:format>image/svg+xml</dc:format>
        <dc:type
           rdf:resource="http://purl.org/dc/dcmitype/StillImage" />
      </cc:Work>
    </rdf:RDF>
  </metadata>
  <defs
     id="defs9" />
  <sodipodi:namedview
     inkscape:current-layer="WORKING_ICONS"
     inkscape:window-maximized="1"
     inkscape:window-y="22"
     inkscape:window-x="-8"
     inkscape:cy="14.496332"
     inkscape:cx="8.0663042"
     inkscape:zoom="21.5"
     showgrid="false"
     id="namedview7"
     inkscape:window-height="1027"
     inkscape:window-width="1920"
     inkscape:pageshadow="2"
     inkscape:pageopacity="0"
     guidetolerance="10"
     gridtolerance="10"
     objecttolerance="10"
     borderopacity="1"
     bordercolor="#666666"
     pagecolor="#ffffff" />
  <title
     id="title2">direction</title>
  <path
     style="stroke-width:1.33333"
     id="path4"
     d="M 14.666667,2.9333332 A 5.0666667,5.0666667 0 1 1 9.6,7.9999995 5.0723733,5.0723733 0 0 1 14.666667,2.9333332 m 0,9.3333338 A 4.2666667,4.2666667 0 1 0 10.4,7.9999995 4.2714933,4.2714933 0 0 0 14.666667,12.266667 m 0,-9.6000005 A 5.3333333,5.3333333 0 1 0 20,7.9999995 5.33944,5.33944 0 0 0 14.666667,2.6666665 Z m 0,9.3333335 a 4,4 0 1 1 4,-4.0000005 4.0043733,4.0043733 0 0 1 -4,4.0000005 z m 3.77148,-7.7708268 A 5.3753333,5.3753333 0 0 0 17.71548,3.6230532 5.4373333,5.4373333 0 0 0 10.895813,4.2285198 5.2912267,5.2912267 0 0 0 9.374347,7.3333335 H 4 A 0.23838667,0.23838667 0 0 1 3.7484533,6.9716795 l 0.89584,-1.967853 A 0.25773333,0.25773333 0 0 0 4.2286,4.7308798 L 0,7.9999995 4.2286,11.26912 A 0.25773333,0.25773333 0 0 0 4.6442933,10.996174 L 3.7484533,9.0283195 A 0.23838667,0.23838667 0 0 1 4,8.6666665 h 6.666667 v -0.666667 a 3.9741733,3.9741733 0 0 1 1.17188,-2.828773 4.0811733,4.0811733 0 0 1 5.113933,-0.4544267 4.0299733,4.0299733 0 0 1 0.542973,0.45508 A 3.99968,3.99968 0 0 1 14.666667,12 H 14 v 5.333334 h 1.333333 V 13.29232 a 5.33384,5.33384 0 0 0 3.104814,-9.0631468 z"
     fill="#000000" />
</svg>
