<?xml version="1.0" encoding="UTF-8" standalone="no"?>
<svg
   xmlns:dc="http://purl.org/dc/elements/1.1/"
   xmlns:cc="http://creativecommons.org/ns#"
   xmlns:rdf="http://www.w3.org/1999/02/22-rdf-syntax-ns#"
   xmlns:svg="http://www.w3.org/2000/svg"
   xmlns="http://www.w3.org/2000/svg"
   xmlns:sodipodi="http://sodipodi.sourceforge.net/DTD/sodipodi-0.dtd"
   xmlns:inkscape="http://www.inkscape.org/namespaces/inkscape"
   inkscape:version="1.0 (4035a4fb49, 2020-05-01)"
   sodipodi:docname="rotary_right.svg"
   version="1.1"
   viewBox="0 0 20 20"
   height="20"
   width="20"
   data-name="WORKING ICONS"
   id="WORKING_ICONS">
  <metadata
     id="metadata11">
    <rdf:RDF>
      <cc:Work
         rdf:about="">
        <dc:format>image/svg+xml</dc:format>
        <dc:type
           rdf:resource="http://purl.org/dc/dcmitype/StillImage" />
      </cc:Work>
    </rdf:RDF>
  </metadata>
  <defs
     id="defs9" />
  <sodipodi:namedview
     inkscape:current-layer="WORKING_ICONS"
     inkscape:window-maximized="1"
     inkscape:window-y="22"
     inkscape:window-x="-8"
     inkscape:cy="13.338382"
     inkscape:cx="14.80966"
     inkscape:zoom="21.5"
     showgrid="false"
     id="namedview7"
     inkscape:window-height="1027"
     inkscape:window-width="1920"
     inkscape:pageshadow="2"
     inkscape:pageopacity="0"
     guidetolerance="10"
     gridtolerance="10"
     objecttolerance="10"
     borderopacity="1"
     bordercolor="#666666"
     pagecolor="#ffffff" />
  <title
     id="title2">direction</title>
  <path
     style="stroke-width:1.33252"
     id="path4"
     d="M 5.3300783,2.9376459 A 5.0635745,5.0635745 0 1 1 0.2665038,8.00122 5.0692777,5.0692777 0 0 1 5.3300783,2.9376459 m 0,9.3276371 A 4.2640627,4.2640627 0 1 0 1.0660156,8.00122 4.2688865,4.2688865 0 0 0 5.3300783,12.265283 m 0,-9.594141 A 5.3300784,5.3300784 0 1 0 10.660157,8.00122 5.3361814,5.3361814 0 0 0 5.3300783,2.671142 Z m 0,9.327637 A 3.9975588,3.9975588 0 1 1 9.3276369,8.00122 4.0019295,4.0019295 0 0 1 5.3300783,11.998779 Z M 15.774061,4.7340956 a 0.25757604,0.25757604 0 0 0 -0.41544,0.27278 L 16.253914,6.973528 A 0.23826783,0.23826783 0 0 1 16.002441,7.334961 H 9.3276369 V 8.00122 A 3.9974789,3.9974789 0 0 1 5.3300783,11.998779 H 4.6638185 v 5.330079 H 5.9963381 V 13.290311 A 5.3343425,5.3343425 0 0 0 10.619169,8.66748 h 5.383272 a 0.23826783,0.23826783 0 0 1 0.251473,0.361433 l -0.895293,1.966652 a 0.25757604,0.25757604 0 0 0 0.41544,0.27278 L 20,8.00122 Z"
     fill="#000000" />
</svg>
