<svg id="WORKING_ICONS" data-name="WORKING ICONS" xmlns="http://www.w3.org/2000/svg" width="20" height="20" viewBox="0 0 20 20">
  <title>direction</title>
  <path fill="#ffffff" d="M8.97217,5.2a3.8,3.8,0,1,1-3.8,3.8,3.8043,3.8043,0,0,1,3.8-3.8m0,7a3.2,3.2,0,1,0-3.2-3.2,3.20361,3.20361,0,0,0,3.2,3.2m0-7.2a4,4,0,1,0,4,4,4.00458,4.00458,0,0,0-4-4h0Zm0,7a3,3,0,1,1,3-3,3.00328,3.00328,0,0,1-3,3h0Zm7.491,1.02374a0.19328,0.19328,0,0,0-.36517-0.07568L15.52948,14.4668a0.17883,0.17883,0,0,1-.32526.05835l-0.00018.00018-3.75726-3.75726-0.35352.35352A2.98022,2.98022,0,0,1,8.97217,12h-0.5v4h1V12.96924a3.95621,3.95621,0,0,0,1.95264-.80859l3.07312,3.07275a0.17841,0.17841,0,0,1-.05914.324L12.9201,16.126a0.1933,0.1933,0,0,0,.07568.36523L16.972,17Z"/>
</svg>
