<svg id="WORKING_ICONS" data-name="WORKING ICONS" xmlns="http://www.w3.org/2000/svg" width="20" height="20" viewBox="0 0 20 20">
  <title>direction</title>
  <path fill="#ffffff" d="M7,6.2A3.8,3.8,0,1,1,3.2,10,3.80428,3.80428,0,0,1,7,6.2m0,7A3.2,3.2,0,1,0,3.8,10,3.20362,3.20362,0,0,0,7,13.2M7,6a4,4,0,1,0,4,4A4.00458,4.00458,0,0,0,7,6H7Zm0,7a3,3,0,1,1,3-3,3.00328,3.00328,0,0,1-3,3H7Zm7.83777-5.45184a0.1933,0.1933,0,0,0-.31177.20471l0.67188,1.47589A0.17881,0.17881,0,0,1,15.00916,9.5H10V10a2.99994,2.99994,0,0,1-3,3H6.5v4h1V13.96924A4.0032,4.0032,0,0,0,10.96924,10.5h4.03992a0.17881,0.17881,0,0,1,.18872.27124L14.526,12.24713a0.1933,0.1933,0,0,0,.31177.20471L18.00916,10Z"/>
</svg>
