<svg id="WORKING_ICONS" data-name="WORKING ICONS" xmlns="http://www.w3.org/2000/svg" width="20" height="20" viewBox="0 0 20 20">
  <title>direction</title>
  <path fill="#ffffff" d="M13,6.2A3.8,3.8,0,1,1,9.2,10,3.80428,3.80428,0,0,1,13,6.2m0,7A3.2,3.2,0,1,0,9.8,10,3.20362,3.20362,0,0,0,13,13.2M13,6a4,4,0,1,0,4,4,4.00458,4.00458,0,0,0-4-4h0Zm0,7a3,3,0,1,1,3-3,3.00328,3.00328,0,0,1-3,3h0Zm2.82861-5.82812a4.0315,4.0315,0,0,0-.542-0.45459,4.078,4.078,0,0,0-5.11475.4541A3.96842,3.96842,0,0,0,9.03076,9.5H5a0.17879,0.17879,0,0,1-.18866-0.27124L5.48322,7.75287a0.1933,0.1933,0,0,0-.31177-0.20471L2,10l3.17145,2.45184a0.1933,0.1933,0,0,0,.31177-0.20471L4.81134,10.77124A0.17879,0.17879,0,0,1,5,10.5h5V10a2.98063,2.98063,0,0,1,.87891-2.12158,3.06088,3.06088,0,0,1,3.83545-.34082,3.02248,3.02248,0,0,1,.40723.34131A2.99976,2.99976,0,0,1,13,13H12.5v4h1V13.96924A4.00038,4.00038,0,0,0,15.82861,7.17188Z"/>
</svg>
