<svg id="WORKING_ICONS" data-name="WORKING ICONS" xmlns="http://www.w3.org/2000/svg" width="20" height="20" viewBox="0 0 20 20">
  <title>direction</title>
  <path fill="#ffffff" d="M10.994,5.2A3.8,3.8,0,1,1,7.194,9a3.80428,3.80428,0,0,1,3.8-3.8m0,7A3.2,3.2,0,1,0,7.794,9a3.20362,3.20362,0,0,0,3.2,3.2m0-7.2a4,4,0,1,0,4,4,4.00458,4.00458,0,0,0-4-4h0Zm0,7a3,3,0,1,1,3-3,3.00328,3.00328,0,0,1-3,3h0Zm2.8291-5.82812a4.03583,4.03583,0,0,0-.54248-0.45459,4.07906,4.07906,0,0,0-5.11475.4541,4.00058,4.00058,0,0,0-.33252,5.28076L4.76758,14.51792a0.17873,0.17873,0,0,1-.325-0.05847L3.874,12.94071a0.19332,0.19332,0,0,0-.36523.07568L3,16.99265l3.97626-.50879a0.19332,0.19332,0,0,0,.07568-0.36523L5.5332,15.55008a0.17879,0.17879,0,0,1-.05835-0.3252l-0.00037-.00037,3.40378-3.40567,0.33838-.353-0.34521-.34619A2.9995,2.9995,0,0,1,8.8729,6.87842a3.06063,3.06063,0,0,1,3.83545-.34082,3.02673,3.02673,0,0,1,.40771.34131A3,3,0,0,1,10.994,12h-0.5v4h1V12.96924A4.00076,4.00076,0,0,0,13.82309,6.17188Z"/>
</svg>
