<svg id="WORKING_ICONS" data-name="WORKING ICONS" xmlns="http://www.w3.org/2000/svg" width="20" height="20" viewBox="0 0 20 20">
  <title>direction</title>
  <path fill="#ffffff" d="M10.97473,7.2a3.8,3.8,0,1,1-3.8,3.8,3.80428,3.80428,0,0,1,3.8-3.8m0,7a3.2,3.2,0,1,0-3.2-3.2,3.20363,3.20363,0,0,0,3.2,3.2m0-7.2a4,4,0,1,0,4,4,4.00458,4.00458,0,0,0-4-4h0Zm0,7a3,3,0,1,1,3-3,3.00328,3.00328,0,0,1-3,3h0Zm-5.499-9.20184A0.17879,0.17879,0,0,1,5.53408,4.473L7.0528,3.90441a0.1933,0.1933,0,0,0-.0757-0.36521L3.00086,3.03039,3.50967,7.00664a0.1933,0.1933,0,0,0,.36521.0757L4.44342,5.56362a0.17879,0.17879,0,0,1,.32521-0.05835m6.7061,9.464a4.00038,4.00038,0,0,0,2.32861-6.79736,4.0315,4.0315,0,0,0-.542-0.45459,4.07671,4.07671,0,0,0-4.73975.12256l-3.75294-3.749-0.707.708,4.439,4.43311,0.353-.35352a3.05971,3.05971,0,0,1,3.83545-.34082,3.02248,3.02248,0,0,1,.40723.34131A2.99976,2.99976,0,0,1,10.97472,14h-0.5v4h1V14.96924Z"/>
</svg>
