<svg id="WORKING_ICONS" data-name="WORKING ICONS" xmlns="http://www.w3.org/2000/svg" width="20" height="20" viewBox="0 0 20 20">
  <title>direction</title>
  <path fill="#ffffff" d="M5.5,10.002a0.17879,0.17879,0,0,0,.27124.18866l1.47589-.67188a0.1933,0.1933,0,0,1,.20471.31177L5,13.002,2.54816,9.83051a0.1933,0.1933,0,0,1,.20471-0.31177l1.476,0.67188A0.17876,0.17876,0,0,0,4.5,10.002V10A5.51888,5.51888,0,0,1,7.25293,5.23437l0.5,0.86523A4.51856,4.51856,0,0,0,5.5,10v0.002Zm6.75146-3.89941A4.51948,4.51948,0,0,1,14.5,10h1a5.5223,5.5223,0,0,0-2.74756-4.7627L12.751,5.23724A0.17878,0.17878,0,0,1,12.72321,4.908L14.043,3.96576a0.19332,0.19332,0,0,0-.16766-0.33319l-3.97247.53766,1.52063,3.70911a0.19331,0.19331,0,0,0,.37238-0.02142L11.952,6.24377A0.17945,0.17945,0,0,1,12.25146,6.10254ZM12.74688,14.766a0.17879,0.17879,0,0,1,.299.14053l0.1561,1.61412a0.1933,0.1933,0,0,0,.37235.02141L15.095,12.833l-3.97245-.53766a0.1933,0.1933,0,0,0-.16764.33317l1.31982,0.94225a0.17879,0.17879,0,0,1-.02781.32923l0.00361-.00254a4.57684,4.57684,0,0,1-4.502,0l-0.501.86523a5.50442,5.50442,0,0,0,5.50391,0Z" />
</svg>
