<svg id="WORKING_ICONS" data-name="WORKING ICONS" xmlns="http://www.w3.org/2000/svg" width="20" height="20" viewBox="0 0 20 20">
  <title>direction</title>
  <path fill="#ffffff" d="M8.97128,7.2a3.8,3.8,0,1,1-3.8,3.8,3.80428,3.80428,0,0,1,3.8-3.8m0,7a3.2,3.2,0,1,0-3.2-3.2,3.20363,3.20363,0,0,0,3.2,3.2m0-7.2a4,4,0,1,0,4,4,4.00458,4.00458,0,0,0-4-4h0Zm0,7a3,3,0,1,1,3-3,3.00328,3.00328,0,0,1-3,3h0ZM13.05247,3.45127a0.19328,0.19328,0,0,0-.07568.36517l1.51874,0.5686a0.17878,0.17878,0,0,1,.05835.3252l0.00006,0.00006L10.73885,8.52539l0.35352,0.35352A2.99976,2.99976,0,0,1,8.97127,14h-0.5v3.97917h1V14.96924a4.00123,4.00123,0,0,0,2.66016-6.42236L15.261,5.41734a0.17878,0.17878,0,0,1,.3252.05835L16.1547,6.99443a0.19332,0.19332,0,0,0,.36523-0.07574l0.50879-3.9762Z"/>
</svg>
