<?xml version="1.0" encoding="UTF-8" standalone="no"?>
<svg
   xmlns:dc="http://purl.org/dc/elements/1.1/"
   xmlns:cc="http://creativecommons.org/ns#"
   xmlns:rdf="http://www.w3.org/1999/02/22-rdf-syntax-ns#"
   xmlns:svg="http://www.w3.org/2000/svg"
   xmlns="http://www.w3.org/2000/svg"
   xmlns:sodipodi="http://sodipodi.sourceforge.net/DTD/sodipodi-0.dtd"
   xmlns:inkscape="http://www.inkscape.org/namespaces/inkscape"
   inkscape:version="1.0 (4035a4fb49, 2020-05-01)"
   sodipodi:docname="turn_sharp_left.svg"
   version="1.1"
   viewBox="0 0 20 20"
   height="20"
   width="20"
   data-name="WORKING ICONS"
   id="WORKING_ICONS">
  <metadata
     id="metadata11">
    <rdf:RDF>
      <cc:Work
         rdf:about="">
        <dc:format>image/svg+xml</dc:format>
        <dc:type
           rdf:resource="http://purl.org/dc/dcmitype/StillImage" />
      </cc:Work>
    </rdf:RDF>
  </metadata>
  <defs
     id="defs9" />
  <sodipodi:namedview
     inkscape:current-layer="WORKING_ICONS"
     inkscape:window-maximized="1"
     inkscape:window-y="22"
     inkscape:window-x="-8"
     inkscape:cy="12.330285"
     inkscape:cx="11.649138"
     inkscape:zoom="21.5"
     showgrid="false"
     id="namedview7"
     inkscape:window-height="1027"
     inkscape:window-width="1920"
     inkscape:pageshadow="2"
     inkscape:pageopacity="0"
     guidetolerance="10"
     gridtolerance="10"
     objecttolerance="10"
     borderopacity="1"
     bordercolor="#666666"
     pagecolor="#ffffff" />
  <title
     id="title2">direction</title>
  <path
     style="stroke-width:1.33235"
     id="path4"
     d="m 17.980101,19.999959 a 0.66322994,0.66322994 0 0 1 -0.66323,-0.66323 V 2.6846325 l -0.372764,-0.00843 A 3.4209123,3.4209123 0 0 0 14.151903,3.7287543 L 6.9635218,9.8746527 a 0.46522958,0.46522958 0 0 0 0.1099455,0.8417383 l 3.9021427,1.856375 a 0.51505943,0.51505943 0 0 1 -0.284376,0.952257 L 0.0184535,13.967483 2.2776908,3.5271966 A 0.5150994,0.5150994 0 0 1 3.2645883,3.4096834 l 1.1624744,4.1618853 a 0.47640798,0.47640798 0 0 0 0.8500385,0.229243 l 0.00504,0.006 7.1841578,-6.1409158 a 5.950723,5.950723 0 0 1 4.509695,-1.65372468 l 0.351953,0.00266 a 2.5705673,2.5705673 0 0 1 1.910695,0.7579066 2.8012235,2.8012235 0 0 1 0.742292,1.94582888 l 6.12e-4,16.6181743 a 0.66322994,0.66322994 0 0 1 -0.66323,0.663257 z"
     fill="#000000" />
</svg>
