<svg id="WORKING_ICONS" data-name="WORKING ICONS" xmlns="http://www.w3.org/2000/svg" width="20" height="20" viewBox="0 0 20 20">
  <title>direction</title>
  <path fill="#ffffff" d="M10,5.97986l0.011,0.00183A6.06019,6.06019,0,0,1,16,12.05493V16H15.99689l0.002,1.50317A0.49614,0.49614,0,0,1,15.50269,18H14.49622A0.49622,0.49622,0,0,1,14,17.50378V12.05493a4.05782,4.05782,0,0,0-3.98877-4.07324H8.01245a0.3576,0.3576,0,0,0-.37738.54248L8.97882,11.476a0.38659,0.38659,0,0,1-.62354.40942L2.0083,7l6.347-4.922a0.38659,0.38659,0,0,1,.62354.40942L7.63507,5.43927a0.35757,0.35757,0,0,0,.37738.54242H10"/>
</svg>
