<?xml version="1.0" encoding="UTF-8" standalone="no"?>
<svg
   xmlns:dc="http://purl.org/dc/elements/1.1/"
   xmlns:cc="http://creativecommons.org/ns#"
   xmlns:rdf="http://www.w3.org/1999/02/22-rdf-syntax-ns#"
   xmlns:svg="http://www.w3.org/2000/svg"
   xmlns="http://www.w3.org/2000/svg"
   xmlns:sodipodi="http://sodipodi.sourceforge.net/DTD/sodipodi-0.dtd"
   xmlns:inkscape="http://www.inkscape.org/namespaces/inkscape"
   inkscape:version="1.0 (4035a4fb49, 2020-05-01)"
   sodipodi:docname="updown.svg"
   version="1.1"
   viewBox="0 0 20 20"
   height="20"
   width="20"
   data-name="WORKING ICONS"
   id="WORKING_ICONS">
  <metadata
     id="metadata11">
    <rdf:RDF>
      <cc:Work
         rdf:about="">
        <dc:format>image/svg+xml</dc:format>
        <dc:type
           rdf:resource="http://purl.org/dc/dcmitype/StillImage" />
      </cc:Work>
    </rdf:RDF>
  </metadata>
  <defs
     id="defs9" />
  <sodipodi:namedview
     inkscape:current-layer="WORKING_ICONS"
     inkscape:window-maximized="1"
     inkscape:window-y="22"
     inkscape:window-x="-8"
     inkscape:cy="16.878949"
     inkscape:cx="9.9240143"
     inkscape:zoom="15.202796"
     showgrid="false"
     id="namedview7"
     inkscape:window-height="1027"
     inkscape:window-width="1920"
     inkscape:pageshadow="2"
     inkscape:pageopacity="0"
     guidetolerance="10"
     gridtolerance="10"
     objecttolerance="10"
     borderopacity="1"
     bordercolor="#666666"
     pagecolor="#ffffff" />
  <title
     id="title2">direction</title>
  <path
     style="stroke-width:1.11162"
     id="path4"
     d="M 15.451059,12.94916 10.000012,20 4.5489541,12.94916 a 0.4297426,0.4297426 0 0 1 0.455121,-0.693142 l 3.2813353,1.493744 a 0.39748328,0.39748328 0 0 0 0.602978,-0.419504 V 6.6697422 A 0.39748328,0.39748328 0 0 0 8.2854215,6.2502376 L 5.0040751,7.7439819 A 0.4297426,0.4297426 0 0 1 4.5489541,7.0508401 L 10.000012,0 15.45107,7.0508401 A 0.42975372,0.42975372 0 0 1 14.995949,7.7439819 L 11.714591,6.2502376 a 0.39748328,0.39748328 0 0 0 -0.602967,0.4195046 v 6.6605158 a 0.39748328,0.39748328 0 0 0 0.602967,0.419504 l 3.281335,-1.493744 a 0.42975372,0.42975372 0 0 1 0.455133,0.693142 z"
     fill="#000000" />
</svg>
