<svg id="WORKING_ICONS" data-name="WORKING ICONS" xmlns="http://www.w3.org/2000/svg" width="20" height="20" viewBox="0 0 20 20">
  <title>direction</title>
  <path fill="#ffffff" d="M14.91284,12.65717L10.00916,19,5.10547,12.65717a0.38659,0.38659,0,0,1,.40942-0.62354l2.95184,1.34375A0.35757,0.35757,0,0,0,9.00916,13V7.0083a0.35757,0.35757,0,0,0-.54242-0.37738L5.51489,7.97467a0.38659,0.38659,0,0,1-.40942-0.62354L10.00916,1.0083l4.90369,6.34283a0.3866,0.3866,0,0,1-.40942.62354L11.55157,6.63092a0.35757,0.35757,0,0,0-.54242.37738V13a0.35757,0.35757,0,0,0,.54242.37738l2.95184-1.34375A0.3866,0.3866,0,0,1,14.91284,12.65717Z"/>
</svg>
