<svg id="WORKING_ICONS" data-name="WORKING ICONS" xmlns="http://www.w3.org/2000/svg" width="20" height="20" viewBox="0 0 20 20">
  <title>direction</title>
  <path fill="#ffffff" d="M17,8v9.49652A0.50346,0.50346,0,0,1,16.49652,18h-0.993A0.50346,0.50346,0,0,1,15,17.49652V8A3.5,3.5,0,0,0,8,8v4H7.99091a0.35757,0.35757,0,0,0,.54242.37738l2.95184-1.34375a0.3866,0.3866,0,0,1,.40942.62354L6.99091,18,2.08716,11.65717a0.3866,0.3866,0,0,1,.40942-0.62354l2.95184,1.34375A0.3576,0.3576,0,0,0,5.99091,12H6V8A5.5,5.5,0,0,1,17,8Z"/>
</svg>
